<svg width="34" height="21" viewBox="0 0 34 21" fill="none" xmlns="http://www.w3.org/2000/svg">
<path opacity="0.996" d="M5.70249 1.72256L17.005 12.9976L28.3025 1.72256C28.572 1.45324 28.8919 1.23966 29.2439 1.09403C29.596 0.948389 29.9733 0.873548 30.3543 0.87378C30.7352 0.874012 31.1124 0.949313 31.4643 1.09538C31.8162 1.24145 32.1358 1.45542 32.405 1.72506C32.6744 1.99416 32.8881 2.31372 33.0339 2.66548C33.1798 3.01723 33.2548 3.39428 33.2548 3.77506C33.2548 4.15584 33.1798 4.53289 33.0339 4.88464C32.8881 5.2364 32.6744 5.55596 32.405 5.82506L19.055 19.1751C18.5103 19.7188 17.7721 20.0243 17.0025 20.0243C16.2328 20.0243 15.4946 19.7188 14.95 19.1751L1.59999 5.82506C1.33059 5.55596 1.11686 5.2364 0.971046 4.88464C0.825226 4.53289 0.750175 4.15584 0.750175 3.77506C0.750175 3.39428 0.825226 3.01723 0.971046 2.66548C1.11686 2.31372 1.33059 1.99416 1.59999 1.72506C1.86914 1.45542 2.18878 1.24145 2.54066 1.09538C2.89253 0.949313 3.26974 0.874012 3.65072 0.87378C4.03171 0.873548 4.40901 0.948389 4.76106 1.09403C5.11311 1.23966 5.43301 1.45324 5.70249 1.72256Z" fill="#4E4C4C"/>
</svg>
