<?xml version="1.0" encoding="UTF-8"?>
<svg id="Logos" xmlns="http://www.w3.org/2000/svg" viewBox="0 0 1174 213.91">
  <defs>
    <style>
      .cls-1 {
        fill: #fff;
      }

      .cls-2 {
        fill: #ff00c9;
      }
    </style>
  </defs>
  <g id="Vertical">
    <g id="code_the_future_ver_primário">
      <g>
        <path class="cls-1" d="M156.59,142.31c-2.23-1.37-4.03-3.17-5.4-5.4-1.37-2.23-2.05-4.71-2.05-7.45v-32.82c0-2.74.68-5.22,2.05-7.45,1.37-2.23,3.17-4.03,5.4-5.4,2.23-1.37,4.71-2.05,7.45-2.05h48.59v14.14h-48.05c-.36,0-.67.13-.92.38s-.38.56-.38.92v31.74c0,.36.13.67.38.92.25.25.56.38.92.38h48.15v14.14h-48.69c-2.74,0-5.22-.68-7.45-2.05Z"/>
        <path class="cls-1" d="M230.87,142.31c-2.23-1.37-4.03-3.17-5.4-5.4-1.37-2.23-2.05-4.71-2.05-7.45v-32.82c0-2.74.68-5.22,2.05-7.45,1.37-2.23,3.17-4.03,5.4-5.4,2.23-1.37,4.71-2.05,7.45-2.05h33.79c2.74,0,5.24.69,7.51,2.05,2.27,1.37,4.07,3.17,5.4,5.4,1.33,2.23,2,4.72,2,7.45v32.82c0,2.74-.67,5.22-2,7.45-1.33,2.23-3.11,4.03-5.35,5.4-2.23,1.37-4.75,2.05-7.56,2.05h-33.79c-2.74,0-5.22-.68-7.45-2.05ZM238.86,130.21h32.71c.36,0,.67-.12.92-.38.25-.25.38-.56.38-.92v-31.74c0-.36-.13-.67-.38-.92-.25-.25-.56-.38-.92-.38h-32.71c-.36,0-.67.13-.92.38s-.38.56-.38.92v31.74c0,.36.13.67.38.92.25.25.56.38.92.38Z"/>
        <path class="cls-1" d="M302.45,142.31c-2.23-1.37-4.01-3.17-5.34-5.4-1.33-2.23-2-4.71-2-7.45v-32.82c0-2.74.66-5.22,2-7.45,1.33-2.23,3.11-4.03,5.34-5.4,2.23-1.37,4.75-2.05,7.56-2.05h34.66v-20.51h14.15v83.14h-48.8c-2.81,0-5.33-.68-7.56-2.05ZM310.66,130.21h32.72c.36,0,.66-.12.92-.38.25-.25.38-.56.38-.92v-31.74c0-.36-.13-.67-.38-.92-.25-.25-.56-.38-.92-.38h-32.72c-.36,0-.67.13-.92.38-.25.25-.38.56-.38.92v31.74c0,.36.12.67.38.92.25.25.56.38.92.38Z"/>
        <path class="cls-1" d="M375.23,142.31c-2.23-1.37-4.03-3.17-5.4-5.4-1.37-2.23-2.05-4.71-2.05-7.45v-32.82c0-2.74.68-5.22,2.05-7.45,1.37-2.23,3.17-4.03,5.4-5.4,2.23-1.37,4.71-2.05,7.45-2.05h33.79c2.74,0,5.24.69,7.51,2.05,2.27,1.37,4.07,3.17,5.4,5.4,1.33,2.23,2,4.72,2,7.45v23.54h-49.45v8.75c0,.36.13.67.38.92.25.25.56.38.92.38h48.15v14.14h-48.69c-2.74,0-5.22-.68-7.45-2.05ZM381.92,107.43h35.31v-10.26c0-.36-.13-.67-.38-.92-.25-.25-.56-.38-.92-.38h-32.71c-.36,0-.67.13-.92.38s-.38.56-.38.92v10.26Z"/>
        <path class="cls-1" d="M483.2,142.31c-2.23-1.37-4.03-3.17-5.4-5.4-1.37-2.23-2.05-4.71-2.05-7.45V62.52h14.14v19.22h24.4v14.14h-24.4v33.04c0,.36.12.67.38.92.25.25.56.38.92.38h23.11v14.14h-23.65c-2.74,0-5.22-.68-7.45-2.05Z"/>
        <path class="cls-1" d="M524.76,144.36V61.22h14.14v20.51h34.55c2.74,0,5.22.69,7.45,2.05,2.23,1.37,4.03,3.17,5.4,5.4,1.37,2.23,2.05,4.72,2.05,7.45v47.72h-14.15v-47.18c0-.36-.13-.67-.38-.92-.25-.25-.56-.38-.92-.38h-32.72c-.36,0-.67.13-.92.38-.25.25-.38.56-.38.92v47.18h-14.14Z"/>
        <path class="cls-1" d="M603.91,142.31c-2.23-1.37-4.03-3.17-5.4-5.4-1.37-2.23-2.05-4.71-2.05-7.45v-32.82c0-2.74.68-5.22,2.05-7.45,1.37-2.23,3.17-4.03,5.4-5.4,2.23-1.37,4.71-2.05,7.45-2.05h33.79c2.74,0,5.24.69,7.51,2.05,2.27,1.37,4.07,3.17,5.4,5.4,1.33,2.23,2,4.72,2,7.45v23.54h-49.45v8.75c0,.36.13.67.38.92.25.25.56.38.92.38h48.15v14.14h-48.69c-2.74,0-5.22-.68-7.45-2.05ZM610.6,107.43h35.31v-10.26c0-.36-.13-.67-.38-.92-.25-.25-.56-.38-.92-.38h-32.71c-.36,0-.67.13-.92.38-.25.25-.38.56-.38.92v10.26Z"/>
        <path class="cls-1" d="M704.43,144.36v-68.24c0-2.74.68-5.22,2.05-7.45,1.37-2.23,3.17-4.03,5.4-5.4,2.23-1.37,4.72-2.05,7.45-2.05h23.65v14.25h-23.11c-.36,0-.67.13-.92.38-.25.25-.38.56-.38.92v4.97h24.4v14.14h-24.4v48.48h-14.14Z"/>
        <path class="cls-1" d="M759.33,142.31c-2.27-1.37-4.07-3.17-5.4-5.4-1.33-2.23-2-4.71-2-7.45v-47.72h14.14v47.18c0,.36.12.67.38.92.25.25.56.38.92.38h32.72c.36,0,.66-.12.92-.38.25-.25.38-.56.38-.92v-47.18h14.14v47.72c0,2.74-.67,5.22-2,7.45-1.33,2.23-3.11,4.03-5.34,5.4-2.23,1.37-4.75,2.05-7.56,2.05h-33.8c-2.74,0-5.24-.68-7.5-2.05Z"/>
        <path class="cls-1" d="M832.05,142.31c-2.23-1.37-4.03-3.17-5.4-5.4-1.37-2.23-2.05-4.71-2.05-7.45V62.52h14.14v19.22h24.4v14.14h-24.4v33.04c0,.36.12.67.38.92.25.25.56.38.92.38h23.11v14.14h-23.65c-2.74,0-5.22-.68-7.45-2.05Z"/>
        <path class="cls-1" d="M879.29,142.31c-2.27-1.37-4.07-3.17-5.4-5.4-1.33-2.23-2-4.71-2-7.45v-47.72h14.14v47.18c0,.36.12.67.38.92.25.25.56.38.92.38h32.72c.36,0,.66-.12.92-.38.25-.25.38-.56.38-.92v-47.18h14.14v47.72c0,2.74-.67,5.22-2,7.45-1.33,2.23-3.11,4.03-5.34,5.4-2.23,1.37-4.75,2.05-7.56,2.05h-33.8c-2.74,0-5.24-.68-7.5-2.05Z"/>
        <path class="cls-1" d="M946.82,144.36v-47.72c0-2.74.68-5.22,2.05-7.45,1.37-2.23,3.19-4.03,5.45-5.4,2.27-1.37,4.73-2.05,7.4-2.05h34.77v14.14h-34.23c-.36,0-.67.13-.92.38-.25.25-.38.56-.38.92v47.18h-14.15Z"/>
        <path class="cls-1" d="M1011.28,142.31c-2.23-1.37-4.03-3.17-5.4-5.4-1.37-2.23-2.05-4.71-2.05-7.45v-32.82c0-2.74.68-5.22,2.05-7.45,1.37-2.23,3.17-4.03,5.4-5.4,2.23-1.37,4.71-2.05,7.45-2.05h33.79c2.74,0,5.24.69,7.51,2.05,2.27,1.37,4.07,3.17,5.4,5.4,1.33,2.23,2,4.72,2,7.45v23.54h-49.45v8.75c0,.36.13.67.38.92.25.25.56.38.92.38h48.15v14.14h-48.69c-2.74,0-5.22-.68-7.45-2.05ZM1017.97,107.43h35.31v-10.26c0-.36-.13-.67-.38-.92-.25-.25-.56-.38-.92-.38h-32.71c-.36,0-.67.13-.92.38-.25.25-.38.56-.38.92v10.26Z"/>
      </g>
      <path class="cls-2" d="M130.82,71.55h4.77v9.55h-4.77v14.32h-4.77v14.32h-4.77v9.55h-4.77v14.32h-4.77v14.32h-4.77v4.77h-4.77v-4.77h-4.77v-9.55h4.77v-14.32h4.77v-14.32h4.77v-9.55h4.77v-14.32h4.77v-14.32h4.77v-4.77h4.77v4.77ZM1110,105.02v9.55h-4.77v4.77h-4.77v4.77h-4.77v4.77h-4.77v4.77h-9.55v-9.55h4.77v-4.77h4.77v-4.77h4.77v-9.55h-4.77v-4.77h-4.77v-4.77h-4.77v-9.55h9.55v4.77h4.77v4.77h4.77v4.77h4.77v4.77h4.77ZM92.64,85.87v9.55h-4.77v4.77h-4.77v4.77h-4.77v9.55h4.77v4.77h4.77v4.77h4.77v9.55h-9.55v-4.77h-4.77v-4.77h-4.77v-4.77h-4.77v-4.77h-4.77v-9.55h4.77v-4.77h4.77v-4.77h4.77v-4.77h4.77v-4.77h9.55Z"/>
    </g>
  </g>
</svg>