<svg width="397" height="347" viewBox="0 0 397 347" fill="none" xmlns="http://www.w3.org/2000/svg">
<g clip-path="url(#clip0_44_825)">
<path d="M7.93933 88.9519C5.57145 87.4964 3.65358 85.5809 2.18571 83.2158C0.717836 80.8507 -0.0107422 78.2074 -0.0107422 75.2859V38.3546C-0.0107422 35.4331 0.717836 32.7898 2.18571 30.4247C3.65358 28.0596 5.56074 26.1441 7.93933 24.6886C10.3072 23.2332 12.9537 22.4948 15.8787 22.4948H69.6863V36.5781H16.3501C15.718 36.5781 15.1823 36.7922 14.7537 37.2309C14.3251 37.6697 14.1001 38.2048 14.1001 38.8255V74.8043C14.1001 75.4357 14.3144 75.9708 14.7537 76.3989C15.1823 76.8376 15.718 77.0517 16.3501 77.0517H69.7935V91.135H15.8787C12.9537 91.135 10.3072 90.4073 7.93933 88.9412V88.9519Z" fill="white"/>
<path d="M89.7116 88.9519C87.3437 87.4964 85.4258 85.5809 83.9579 83.2158C82.4901 80.8507 81.7615 78.2074 81.7615 75.2859V38.3546C81.7615 35.4331 82.4901 32.7898 83.9579 30.4247C85.4258 28.0596 87.333 26.1441 89.7116 24.6886C92.0794 23.2332 94.7259 22.4948 97.6509 22.4948H135.687C138.687 22.4948 141.376 23.2225 143.744 24.6886C146.112 26.1548 148.008 28.0596 149.434 30.4247C150.859 32.7898 151.566 35.4331 151.566 38.3546V75.2859C151.566 78.2074 150.859 80.8507 149.434 83.2158C148.008 85.5809 146.112 87.4964 143.744 88.9519C141.376 90.418 138.687 91.1457 135.687 91.1457H97.6509C94.7259 91.1457 92.0794 90.418 89.7116 88.9519ZM98.133 77.0624H135.226C135.858 77.0624 136.394 76.8483 136.823 76.4096C137.251 75.9708 137.476 75.4464 137.476 74.815V38.8362C137.476 38.2048 137.262 37.6697 136.823 37.2416C136.383 36.8136 135.848 36.5888 135.226 36.5888H98.133C97.5009 36.5888 96.9652 36.8029 96.5366 37.2416C96.108 37.6804 95.883 38.2155 95.883 38.8362V74.815C95.883 75.4464 96.0973 75.9815 96.5366 76.4096C96.9652 76.8483 97.5009 77.0624 98.133 77.0624Z" fill="white"/>
<path d="M168.344 88.9519C165.934 87.4964 164.016 85.5809 162.601 83.2158C161.176 80.8507 160.469 78.2074 160.469 75.2859V38.3546C160.469 35.4331 161.176 32.7898 162.601 30.4247C164.026 28.0596 165.944 26.1441 168.344 24.6886C170.755 23.2332 173.423 22.4948 176.348 22.4948H216.291V0H230.391V91.1457H176.348C173.423 91.1457 170.755 90.418 168.344 88.9519ZM176.937 77.0624H214.03C214.663 77.0624 215.198 76.8483 215.627 76.4096C216.055 75.9708 216.28 75.4464 216.28 74.815V38.8362C216.28 38.2048 216.055 37.6697 215.627 37.2416C215.188 36.8136 214.663 36.5888 214.03 36.5888H176.937C176.305 36.5888 175.769 36.8029 175.341 37.2416C174.912 37.6804 174.687 38.2155 174.687 38.8362V74.815C174.687 75.4464 174.901 75.9815 175.341 76.4096C175.769 76.8483 176.305 77.0624 176.937 77.0624Z" fill="white"/>
<path d="M248.167 88.9519C245.799 87.4964 243.881 85.5809 242.413 83.2158C240.945 80.8507 240.216 78.2074 240.216 75.2859V38.3546C240.216 35.4331 240.945 32.7898 242.413 30.4247C243.881 28.0596 245.788 26.1441 248.167 24.6886C250.534 23.2332 253.181 22.4948 256.106 22.4948H294.142C297.142 22.4948 299.831 23.2225 302.199 24.6886C304.567 26.1548 306.463 28.0596 307.888 30.4247C309.313 32.7898 310.021 35.4331 310.021 38.3546V63.9208H254.317V74.815C254.317 75.4464 254.531 75.9815 254.97 76.4096C255.399 76.8483 255.934 77.0624 256.567 77.0624H310.01V91.1457H256.084C253.159 91.1457 250.513 90.418 248.145 88.9519H248.167ZM254.327 51.0146H295.921V38.8255C295.921 38.1941 295.706 37.659 295.267 37.2309C294.828 36.8029 294.292 36.5781 293.67 36.5781H256.577C255.945 36.5781 255.409 36.7922 254.981 37.2309C254.552 37.6697 254.327 38.2048 254.327 38.8255V51.0146Z" fill="white"/>
<path d="M8.12147 216.965C5.71073 215.509 3.79286 213.594 2.37856 211.229C0.953548 208.864 0.246399 206.22 0.246399 203.299V129.083H14.3465V150.508H41.8396V164.591H14.3358V202.828C14.3358 203.459 14.5501 203.994 14.9894 204.422C15.418 204.861 15.9537 205.075 16.5858 205.075H41.8289V219.158H16.1144C13.1894 219.158 10.5215 218.431 8.11076 216.965H8.12147Z" fill="white"/>
<path d="M53.0897 219.158V128.013H67.1898V150.508H107.122C109.972 150.508 112.587 151.235 115.008 152.701C117.419 154.168 119.337 156.072 120.751 158.437C122.165 160.803 122.883 163.446 122.883 166.367V219.158H108.783V166.838C108.783 166.207 108.558 165.672 108.13 165.244C107.69 164.816 107.197 164.591 106.651 164.591H69.4399C68.8827 164.591 68.3791 164.805 67.897 165.244C67.4256 165.682 67.1898 166.218 67.1898 166.838V219.158H53.0897Z" fill="white"/>
<path d="M139.726 216.965C137.358 215.509 135.44 213.594 133.973 211.229C132.505 208.864 131.776 206.22 131.776 203.299V166.367C131.776 163.446 132.505 160.803 133.973 158.437C135.44 156.072 137.348 154.157 139.726 152.701C142.094 151.246 144.741 150.508 147.666 150.508H185.702C188.702 150.508 191.391 151.235 193.759 152.701C196.127 154.168 198.023 156.072 199.448 158.437C200.873 160.803 201.58 163.446 201.58 166.367V191.934H145.876V202.828C145.876 203.459 146.091 203.994 146.53 204.422C146.958 204.861 147.494 205.075 148.126 205.075H201.57V219.158H147.644C144.719 219.158 142.073 218.431 139.705 216.965H139.726ZM145.887 179.027H187.48V166.838C187.48 166.207 187.266 165.672 186.827 165.244C186.387 164.816 185.852 164.591 185.23 164.591H148.137C147.505 164.591 146.969 164.805 146.541 165.244C146.112 165.682 145.887 166.218 145.887 166.838V179.027Z" fill="white"/>
<path d="M0.353577 347V271.714C0.353577 268.793 1.06073 266.128 2.48574 263.72C3.91075 261.312 5.82863 259.397 8.22865 257.984C10.6394 256.561 13.3073 255.854 16.2323 255.854H41.9468V270.055H16.7037C16.0716 270.055 15.5359 270.269 15.1073 270.708C14.668 271.147 14.4537 271.639 14.4537 272.185V278.338H41.9468V292.422H14.4537V346.989H0.353577V347Z" fill="white"/>
<path d="M59.6577 344.817C57.2469 343.361 55.3291 341.446 53.9148 339.081C52.4897 336.716 51.7826 334.072 51.7826 331.151V278.36H65.8827V330.68C65.8827 331.311 66.097 331.846 66.5363 332.275C66.9649 332.713 67.5006 332.927 68.1327 332.927H105.226C105.858 332.927 106.394 332.713 106.822 332.275C107.251 331.836 107.476 331.311 107.476 330.68V278.36H121.576V331.151C121.576 334.072 120.869 336.716 119.444 339.081C118.019 341.446 116.122 343.361 113.755 344.817C111.387 346.283 108.697 347.011 105.697 347.011H67.6506C64.7256 347.011 62.0577 346.283 59.6469 344.817H59.6577Z" fill="white"/>
<path d="M139.662 344.817C137.251 343.361 135.333 341.446 133.919 339.081C132.494 336.716 131.787 334.072 131.787 331.151V256.935H145.887V278.36H173.38V292.443H145.887V330.68C145.887 331.311 146.101 331.847 146.541 332.275C146.969 332.713 147.505 332.927 148.137 332.927H173.38V347.011H147.666C144.741 347.011 142.073 346.283 139.662 344.817Z" fill="white"/>
<path d="M190.855 344.817C188.445 343.361 186.527 341.446 185.112 339.081C183.687 336.716 182.98 334.072 182.98 331.151V278.36H197.08V330.68C197.08 331.311 197.295 331.846 197.734 332.275C198.163 332.713 198.698 332.927 199.33 332.927H236.424C237.056 332.927 237.591 332.713 238.02 332.275C238.449 331.836 238.674 331.311 238.674 330.68V278.36H252.774V331.151C252.774 334.072 252.067 336.716 250.642 339.081C249.217 341.446 247.32 343.361 244.952 344.817C242.584 346.283 239.895 347.011 236.895 347.011H198.848C195.923 347.011 193.255 346.283 190.845 344.817H190.855Z" fill="white"/>
<path d="M265.213 347V294.209C265.213 291.287 265.942 288.644 267.41 286.279C268.867 283.914 270.806 281.998 273.217 280.543C275.628 279.088 278.253 278.349 281.103 278.349H319.385V292.432H281.585C280.953 292.432 280.417 292.646 279.988 293.085C279.56 293.524 279.335 294.059 279.335 294.68V347H265.235H265.213Z" fill="white"/>
<path d="M335.146 344.817C332.778 343.361 330.86 341.446 329.392 339.081C327.924 336.716 327.196 334.072 327.196 331.151V294.22C327.196 291.298 327.924 288.655 329.392 286.29C330.86 283.925 332.767 282.009 335.146 280.554C337.514 279.098 340.16 278.36 343.085 278.36H381.121C384.121 278.36 386.811 279.088 389.179 280.554C391.546 282.02 393.443 283.925 394.868 286.29C396.293 288.655 397 291.298 397 294.22V319.786H341.296V330.68C341.296 331.311 341.51 331.846 341.949 332.275C342.378 332.713 342.914 332.927 343.546 332.927H396.989V347.011H343.064C340.139 347.011 337.492 346.283 335.124 344.817H335.146ZM341.307 306.88H382.9V294.69C382.9 294.059 382.686 293.524 382.246 293.096C381.807 292.668 381.271 292.443 380.65 292.443H343.557C342.925 292.443 342.389 292.657 341.96 293.096C341.532 293.535 341.307 294.07 341.307 294.69V306.88Z" fill="white"/>
<path d="M320.028 91.1457V77.0624H396.893V91.1457H320.028Z" fill="#84D4EF"/>
<path d="M314.949 141.968H320.189V152.434H314.949V168.133H309.71V183.832H304.471V194.299H299.231V209.998H293.992V225.697H288.753V230.93H283.513V225.697H278.274V215.231H283.513V199.532H288.753V183.832H293.992V173.366H299.231V157.667H304.471V141.968H309.71V136.735H314.949V141.968ZM356.864 178.599V189.066H351.625V194.299H346.385V199.532H341.146V204.765H335.907V209.998H325.428V199.532H330.667V194.299H335.907V189.066H341.146V178.599H335.907V173.366H330.667V168.133H325.428V157.667H335.907V162.9H341.146V168.133H346.385V173.366H351.625V178.599H356.864ZM273.045 157.667V168.133H267.806V173.366H262.567V178.599H257.327V189.066H262.567V194.299H267.806V199.532H273.045V209.998H262.567V204.765H257.327V199.532H252.088V194.299H246.849V189.066H241.609V178.599H246.849V173.366H252.088V168.133H257.327V162.9H262.567V157.667H273.045Z" fill="#ED0180"/>
</g>
<defs>
<clipPath id="clip0_44_825">
<rect width="397" height="347" fill="white"/>
</clipPath>
</defs>
</svg>
