<?xml version="1.0" encoding="UTF-8"?>
<svg id="Logos" xmlns="http://www.w3.org/2000/svg" viewBox="0 0 466.53 420.25">
  <defs>
    <style>
      .cls-1 {
        fill: #fff;
      }

      .cls-2 {
        fill: #ff00c9;
      }

      .cls-3 {
        fill: #84d4ef;
      }
    </style>
  </defs>
  <g id="Horizontal">
    <g id="code_the_future_hor_primário">
      <g>
        <path class="cls-1" d="M55.67,131.24c-2.21-1.36-4-3.15-5.36-5.36s-2.04-4.68-2.04-7.4v-34.46c0-2.72.68-5.19,2.04-7.4,1.36-2.21,3.15-3.99,5.36-5.36,2.21-1.36,4.67-2.04,7.4-2.04h50.14v13.14h-49.7c-.59,0-1.09.2-1.49.61s-.61.9-.61,1.49v33.57c0,.59.2,1.09.61,1.49.4.41.9.61,1.49.61h49.81v13.14h-50.25c-2.72,0-5.19-.68-7.4-2.04Z"/>
        <path class="cls-1" d="M131.88,131.24c-2.21-1.36-4-3.15-5.36-5.36-1.36-2.21-2.04-4.68-2.04-7.4v-34.46c0-2.72.68-5.19,2.04-7.4,1.36-2.21,3.15-3.99,5.36-5.36,2.21-1.36,4.67-2.04,7.4-2.04h35.45c2.8,0,5.3.68,7.51,2.04,2.21,1.36,3.98,3.15,5.3,5.36,1.33,2.21,1.99,4.68,1.99,7.4v34.46c0,2.72-.66,5.19-1.99,7.4-1.32,2.21-3.09,4-5.3,5.36-2.21,1.36-4.71,2.04-7.51,2.04h-35.45c-2.72,0-5.19-.68-7.4-2.04ZM139.72,120.14h34.57c.59,0,1.09-.2,1.49-.61.4-.41.61-.9.61-1.49v-33.57c0-.59-.2-1.09-.61-1.49-.41-.4-.9-.61-1.49-.61h-34.57c-.59,0-1.09.2-1.49.61s-.61.9-.61,1.49v33.57c0,.59.2,1.09.61,1.49.4.41.9.61,1.49.61Z"/>
        <path class="cls-1" d="M205.16,131.24c-2.25-1.36-4.03-3.15-5.36-5.36-1.32-2.21-1.99-4.68-1.99-7.4v-34.46c0-2.72.66-5.19,1.99-7.4,1.33-2.21,3.11-3.99,5.36-5.36,2.25-1.36,4.73-2.04,7.46-2.04h37.22v-20.99h13.14v85.05h-50.37c-2.72,0-5.21-.68-7.46-2.04ZM213.17,120.14h34.57c.59,0,1.09-.2,1.49-.61.4-.41.61-.9.61-1.49v-33.57c0-.59-.2-1.09-.61-1.49-.41-.4-.9-.61-1.49-.61h-34.57c-.59,0-1.09.2-1.49.61s-.61.9-.61,1.49v33.57c0,.59.2,1.09.61,1.49.4.41.9.61,1.49.61Z"/>
        <path class="cls-1" d="M279.55,131.24c-2.21-1.36-4-3.15-5.36-5.36-1.36-2.21-2.04-4.68-2.04-7.4v-34.46c0-2.72.68-5.19,2.04-7.4,1.36-2.21,3.15-3.99,5.36-5.36,2.21-1.36,4.67-2.04,7.4-2.04h35.45c2.8,0,5.3.68,7.51,2.04,2.21,1.36,3.98,3.15,5.3,5.36,1.33,2.21,1.99,4.68,1.99,7.4v23.86h-51.91v10.16c0,.59.2,1.09.61,1.49.4.41.9.61,1.49.61h49.81v13.14h-50.25c-2.72,0-5.19-.68-7.4-2.04ZM285.29,95.84h38.77v-11.38c0-.59-.2-1.09-.61-1.49-.41-.4-.9-.61-1.49-.61h-34.57c-.59,0-1.09.2-1.49.61s-.61.9-.61,1.49v11.38Z"/>
      </g>
      <g>
        <path class="cls-1" d="M55.83,250.68c-2.25-1.36-4.03-3.15-5.36-5.36-1.32-2.21-1.99-4.68-1.99-7.4v-69.25h13.14v19.99h25.63v13.14h-25.63v35.67c0,.59.2,1.09.61,1.49.4.41.9.61,1.49.61h23.53v13.14h-23.97c-2.72,0-5.21-.68-7.46-2.04Z"/>
        <path class="cls-1" d="M97.75,252.73v-85.05h13.14v20.99h37.22c2.65,0,5.1.68,7.35,2.04,2.25,1.36,4.03,3.15,5.36,5.36,1.32,2.21,1.99,4.68,1.99,7.4v49.26h-13.14v-48.82c0-.59-.2-1.09-.61-1.49-.41-.4-.87-.61-1.38-.61h-34.68c-.52,0-.99.2-1.43.61-.44.41-.66.9-.66,1.49v48.82h-13.14Z"/>
        <path class="cls-1" d="M178.49,250.68c-2.21-1.36-4-3.15-5.36-5.36-1.36-2.21-2.04-4.68-2.04-7.4v-34.46c0-2.72.68-5.19,2.04-7.4,1.36-2.21,3.15-3.99,5.36-5.36,2.21-1.36,4.67-2.04,7.4-2.04h35.45c2.8,0,5.3.68,7.51,2.04,2.21,1.36,3.98,3.15,5.3,5.36,1.33,2.21,1.99,4.68,1.99,7.4v23.86h-51.91v10.16c0,.59.2,1.09.61,1.49.4.41.9.61,1.49.61h49.81v13.14h-50.25c-2.72,0-5.19-.68-7.4-2.04ZM184.23,215.28h38.77v-11.38c0-.59-.2-1.09-.61-1.49-.41-.4-.9-.61-1.49-.61h-34.57c-.59,0-1.09.2-1.49.61s-.61.9-.61,1.49v11.38Z"/>
      </g>
      <g>
        <path class="cls-1" d="M48.59,372.02v-70.25c0-2.72.66-5.21,1.99-7.46,1.33-2.25,3.11-4.03,5.36-5.36,2.25-1.33,4.73-1.99,7.46-1.99h23.97v13.25h-23.53c-.59,0-1.09.2-1.49.61-.41.41-.61.87-.61,1.38v5.74h25.63v13.14h-25.63v50.92h-13.14Z"/>
        <path class="cls-1" d="M103.87,369.98c-2.25-1.36-4.03-3.15-5.36-5.36-1.32-2.21-1.99-4.68-1.99-7.4v-49.26h13.14v48.82c0,.59.2,1.09.61,1.49.4.41.9.61,1.49.61h34.57c.59,0,1.09-.2,1.49-.61.4-.41.61-.9.61-1.49v-48.82h13.14v49.26c0,2.72-.66,5.19-1.99,7.4-1.33,2.21-3.09,4-5.3,5.36-2.21,1.36-4.71,2.04-7.51,2.04h-35.46c-2.72,0-5.21-.68-7.46-2.04Z"/>
        <path class="cls-1" d="M178.42,369.98c-2.25-1.36-4.03-3.15-5.36-5.36-1.32-2.21-1.99-4.68-1.99-7.4v-69.25h13.14v19.99h25.63v13.14h-25.63v35.67c0,.59.2,1.09.61,1.49.4.41.9.61,1.49.61h23.53v13.14h-23.97c-2.72,0-5.21-.68-7.46-2.04Z"/>
        <path class="cls-1" d="M226.14,369.98c-2.25-1.36-4.03-3.15-5.36-5.36-1.32-2.21-1.99-4.68-1.99-7.4v-49.26h13.14v48.82c0,.59.2,1.09.61,1.49.4.41.9.61,1.49.61h34.57c.59,0,1.09-.2,1.49-.61.4-.41.61-.9.61-1.49v-48.82h13.14v49.26c0,2.72-.66,5.19-1.99,7.4-1.33,2.21-3.09,4-5.3,5.36-2.21,1.36-4.71,2.04-7.51,2.04h-35.46c-2.72,0-5.21-.68-7.46-2.04Z"/>
        <path class="cls-1" d="M295.45,372.02v-49.26c0-2.72.68-5.19,2.05-7.4,1.36-2.21,3.16-3.99,5.41-5.36,2.25-1.36,4.69-2.04,7.35-2.04h35.68v13.14h-35.23c-.59,0-1.09.2-1.49.61s-.61.9-.61,1.49v48.82h-13.14Z"/>
        <path class="cls-1" d="M360.61,369.98c-2.21-1.36-4-3.15-5.36-5.36-1.36-2.21-2.04-4.68-2.04-7.4v-34.46c0-2.72.68-5.19,2.04-7.4,1.36-2.21,3.15-3.99,5.36-5.36,2.21-1.36,4.67-2.04,7.4-2.04h35.45c2.8,0,5.3.68,7.51,2.04,2.21,1.36,3.98,3.15,5.3,5.36,1.33,2.21,1.99,4.68,1.99,7.4v23.86h-51.91v10.16c0,.59.2,1.09.61,1.49.4.41.9.61,1.49.61h49.81v13.14h-50.25c-2.72,0-5.19-.68-7.4-2.04ZM366.35,334.58h38.77v-11.38c0-.59-.2-1.09-.61-1.49-.41-.4-.9-.61-1.49-.61h-34.57c-.59,0-1.09.2-1.49.61s-.61.9-.61,1.49v11.38Z"/>
      </g>
      <path class="cls-3" d="M346.53,133.28v-13.14h71.63v13.14h-71.63Z"/>
      <path class="cls-2" d="M341.8,180.71h4.88v9.76h-4.88v14.65h-4.88v14.65h-4.88v9.76h-4.88v14.65h-4.88v14.65h-4.88v4.88h-4.88v-4.88h-4.88v-9.76h4.88v-14.65h4.88v-14.65h4.88v-9.76h4.88v-14.65h4.88v-14.65h4.88v-4.88h4.88v4.88ZM380.85,214.88v9.76h-4.88v4.88h-4.88v4.88h-4.88v4.88h-4.88v4.88h-9.76v-9.76h4.88v-4.88h4.88v-4.88h4.88v-9.76h-4.88v-4.88h-4.88v-4.88h-4.88v-9.76h9.76v4.88h4.88v4.88h4.88v4.88h4.88v4.88h4.88ZM302.74,195.35v9.76h-4.88v4.88h-4.88v4.88h-4.88v9.76h4.88v4.88h4.88v4.88h4.88v9.76h-9.76v-4.88h-4.88v-4.88h-4.88v-4.88h-4.88v-4.88h-4.88v-9.76h4.88v-4.88h4.88v-4.88h4.88v-4.88h4.88v-4.88h9.76Z"/>
    </g>
  </g>
</svg>