<svg width="944" height="83" viewBox="0 0 944 83" fill="none" xmlns="http://www.w3.org/2000/svg">
<path d="M83.5247 73.1587C81.5129 71.9227 79.8889 70.2988 78.6529 68.2869C77.4169 66.275 76.8034 64.0376 76.8034 61.5656V31.9557C76.8034 29.4837 77.4169 27.2463 78.6529 25.2344C79.8889 23.2225 81.5129 21.5986 83.5247 20.3626C85.5366 19.1266 87.7741 18.5131 90.2461 18.5131H134.083V31.27H90.7333C90.4085 31.27 90.1288 31.3873 89.9032 31.6129C89.6777 31.8384 89.5604 32.1181 89.5604 32.4429V61.0784C89.5604 61.4032 89.6777 61.6828 89.9032 61.9084C90.1288 62.1339 90.4085 62.2512 90.7333 62.2512H134.174V75.0082H90.2461C87.7741 75.0082 85.5366 74.3947 83.5247 73.1587Z" fill="white"/>
<path d="M150.539 73.1587C148.528 71.9227 146.904 70.2988 145.668 68.2869C144.432 66.275 143.818 64.0376 143.818 61.5656V31.9557C143.818 29.4837 144.432 27.2463 145.668 25.2344C146.904 23.2225 148.528 21.5986 150.539 20.3626C152.551 19.1266 154.789 18.5131 157.261 18.5131H187.746C190.218 18.5131 192.473 19.1356 194.521 20.3626C196.569 21.5986 198.193 23.2225 199.393 25.2344C200.593 27.2463 201.197 29.4927 201.197 31.9557V61.5656C201.197 64.0376 200.593 66.275 199.393 68.2869C198.193 70.2988 196.587 71.9227 194.566 73.1587C192.554 74.3947 190.281 75.0082 187.746 75.0082H157.261C154.789 75.0082 152.551 74.3947 150.539 73.1587ZM157.748 62.2422H187.259C187.583 62.2422 187.863 62.1339 188.089 61.8994C188.314 61.6738 188.431 61.3942 188.431 61.0694V32.4339C188.431 32.1091 188.314 31.8294 188.089 31.6038C187.863 31.3783 187.583 31.261 187.259 31.261H157.748C157.423 31.261 157.143 31.3783 156.918 31.6038C156.692 31.8294 156.575 32.1091 156.575 32.4339V61.0694C156.575 61.3942 156.692 61.6738 156.918 61.8994C157.143 62.1249 157.423 62.2422 157.748 62.2422Z" fill="white"/>
<path d="M215.118 73.1585C213.106 71.9225 211.5 70.2986 210.301 68.2867C209.101 66.2748 208.496 64.0374 208.496 61.5654V31.9555C208.496 29.4835 209.092 27.2461 210.301 25.2342C211.5 23.2223 213.106 21.5984 215.118 20.3624C217.13 19.1264 219.404 18.5129 221.939 18.5129H253.209V0.00897217H265.975V75.017H221.948C219.413 75.017 217.139 74.4036 215.127 73.1676L215.118 73.1585ZM222.525 62.242H252.045C252.37 62.242 252.64 62.1338 252.875 61.8992C253.1 61.6737 253.218 61.394 253.218 61.0692V32.4337C253.218 32.1089 253.1 31.8292 252.875 31.6037C252.649 31.3781 252.37 31.2608 252.045 31.2608H222.525C222.2 31.2608 221.921 31.3781 221.695 31.6037C221.47 31.8292 221.352 32.1089 221.352 32.4337V61.0692C221.352 61.394 221.461 61.6737 221.695 61.8992C221.921 62.1248 222.2 62.242 222.525 62.242Z" fill="white"/>
<path d="M280.78 73.1587C278.768 71.9227 277.144 70.2988 275.908 68.2869C274.672 66.275 274.058 64.0376 274.058 61.5656V31.9557C274.058 29.4837 274.672 27.2463 275.908 25.2344C277.144 23.2225 278.768 21.5986 280.78 20.3626C282.791 19.1266 285.029 18.5131 287.501 18.5131H317.986C320.458 18.5131 322.713 19.1356 324.761 20.3626C326.809 21.5986 328.433 23.2225 329.633 25.2344C330.833 27.2463 331.438 29.4927 331.438 31.9557V53.1932H286.824V61.0874C286.824 61.4122 286.941 61.6919 287.167 61.9174C287.393 62.143 287.672 62.2603 287.997 62.2603H331.438V75.0172H287.51C285.038 75.0172 282.8 74.4037 280.789 73.1677L280.78 73.1587ZM286.815 41.6903H318.672V32.4339C318.672 32.1091 318.554 31.8294 318.329 31.6038C318.103 31.3783 317.823 31.261 317.499 31.261H287.988C287.663 31.261 287.384 31.3783 287.158 31.6038C286.932 31.8294 286.815 32.1091 286.815 32.4339V41.6903Z" fill="white"/>
<path d="M378.189 73.1585C376.177 71.9225 374.553 70.2986 373.317 68.2867C372.081 66.2748 371.468 64.0374 371.468 61.5654V1.17279H384.225V18.5129H406.238V31.2698H384.225V61.0782C384.225 61.403 384.333 61.6827 384.568 61.9082C384.793 62.1338 385.073 62.2511 385.398 62.2511H406.247V75.008H384.91C382.438 75.008 380.201 74.3945 378.189 73.1585Z" fill="white"/>
<path d="M415.684 75.0081V0H428.441V18.5039H459.611C462.083 18.5039 464.321 19.1264 466.333 20.3534C468.345 21.5894 469.969 23.2133 471.205 25.2252C472.441 27.2371 473.054 29.4836 473.054 31.9465V74.9991H460.288V32.4337C460.288 32.1089 460.171 31.8293 459.945 31.6037C459.72 31.3782 459.44 31.2609 459.115 31.2609H429.596C429.271 31.2609 428.991 31.3782 428.766 31.6037C428.54 31.8293 428.423 32.1089 428.423 32.4337V74.9991H415.666L415.684 75.0081Z" fill="white"/>
<path d="M487.092 73.1587C485.08 71.9227 483.457 70.2988 482.221 68.2869C480.985 66.275 480.371 64.0376 480.371 61.5656V31.9557C480.371 29.4837 480.985 27.2463 482.221 25.2344C483.457 23.2225 485.08 21.5986 487.092 20.3626C489.104 19.1266 491.342 18.5131 493.814 18.5131H524.299C526.771 18.5131 529.026 19.1356 531.074 20.3626C533.122 21.5986 534.746 23.2225 535.946 25.2344C537.146 27.2463 537.75 29.4927 537.75 31.9557V53.1932H493.137V61.0874C493.137 61.4122 493.254 61.6919 493.48 61.9174C493.705 62.143 493.985 62.2603 494.31 62.2603H537.75V75.0172H493.823C491.351 75.0172 489.113 74.4037 487.101 73.1677L487.092 73.1587ZM493.128 41.6903H524.984V32.4339C524.984 32.1091 524.867 31.8294 524.641 31.6038C524.416 31.3783 524.136 31.261 523.811 31.261H494.301C493.976 31.261 493.696 31.3783 493.471 31.6038C493.245 31.8294 493.128 32.1091 493.128 32.4339V41.6903Z" fill="white"/>
<path d="M577.78 75.0081V13.4426C577.78 10.9706 578.394 8.7332 579.63 6.72131C580.866 4.70943 582.49 3.08549 584.502 1.84949C586.514 0.613488 588.76 0 591.223 0H612.56V12.8562H591.71C591.385 12.8562 591.106 12.9735 590.88 13.199C590.655 13.4246 590.537 13.7043 590.537 14.029V18.5129H612.551V31.2699H590.537V75.0081H577.78Z" fill="white"/>
<path d="M627.311 73.1587C625.263 71.9227 623.639 70.2988 622.439 68.2869C621.239 66.275 620.635 64.0376 620.635 61.5656V18.5131H633.392V61.0784C633.392 61.4032 633.5 61.6828 633.734 61.9084C633.96 62.1339 634.24 62.2512 634.564 62.2512H664.084C664.409 62.2512 664.68 62.143 664.914 61.9084C665.14 61.6828 665.257 61.4032 665.257 61.0784V18.5131H678.014V61.5656C678.014 64.0376 677.409 66.275 676.21 68.2869C675.01 70.2988 673.404 71.9227 671.392 73.1587C669.38 74.3947 667.106 75.0082 664.571 75.0082H634.077C631.605 75.0082 629.35 74.3947 627.311 73.1587Z" fill="white"/>
<path d="M692.918 73.1585C690.906 71.9225 689.282 70.2986 688.046 68.2867C686.81 66.2748 686.197 64.0374 686.197 61.5654V1.17279H698.954V18.5129H720.967V31.2698H698.954V61.0782C698.954 61.403 699.062 61.6827 699.296 61.9082C699.522 62.1338 699.802 62.2511 700.126 62.2511H720.976V75.008H699.639C697.167 75.008 694.93 74.3945 692.918 73.1585Z" fill="white"/>
<path d="M735.537 73.1587C733.489 71.9227 731.865 70.2988 730.666 68.2869C729.466 66.275 728.861 64.0376 728.861 61.5656V18.5131H741.618V61.0784C741.618 61.4032 741.726 61.6828 741.961 61.9084C742.187 62.1339 742.466 62.2512 742.791 62.2512H772.311C772.635 62.2512 772.906 62.143 773.141 61.9084C773.366 61.6828 773.483 61.4032 773.483 61.0784V18.5131H786.24V61.5656C786.24 64.0376 785.636 66.275 784.436 68.2869C783.236 70.2988 781.63 71.9227 779.618 73.1587C777.607 74.3947 775.333 75.0082 772.798 75.0082H742.304C739.832 75.0082 737.576 74.3947 735.537 73.1587Z" fill="white"/>
<path d="M796.462 75.0082V31.9557C796.462 29.4837 797.076 27.2463 798.312 25.2344C799.548 23.2225 801.19 21.5986 803.229 20.3626C805.277 19.1266 807.496 18.5131 809.905 18.5131H841.274V31.27H810.392C810.067 31.27 809.788 31.3873 809.562 31.6129C809.337 31.8384 809.219 32.1181 809.219 32.4429V75.0082H796.453H796.462Z" fill="white"/>
<path d="M854.617 73.1587C852.606 71.9227 850.982 70.2988 849.746 68.2869C848.51 66.275 847.896 64.0376 847.896 61.5656V31.9557C847.896 29.4837 848.51 27.2463 849.746 25.2344C850.982 23.2225 852.606 21.5986 854.617 20.3626C856.629 19.1266 858.867 18.5131 861.339 18.5131H891.824C894.296 18.5131 896.551 19.1356 898.599 20.3626C900.647 21.5986 902.271 23.2225 903.471 25.2344C904.671 27.2463 905.275 29.4927 905.275 31.9557V53.1932H860.662V61.0874C860.662 61.4122 860.779 61.6919 861.005 61.9174C861.23 62.143 861.51 62.2603 861.835 62.2603H905.275V75.0172H861.348C858.876 75.0172 856.638 74.4037 854.626 73.1677L854.617 73.1587ZM860.653 41.6903H892.509V32.4339C892.509 32.1091 892.392 31.8294 892.167 31.6038C891.941 31.3783 891.661 31.261 891.337 31.261H861.826C861.501 31.261 861.221 31.3783 860.996 31.6038C860.77 31.8294 860.653 32.1091 860.653 32.4339V41.6903Z" fill="white"/>
<path d="M60.2753 9.31962H64.5788V17.9355H60.2753V30.8549H55.9719V43.7743H51.6684V52.3902H47.365V65.3095H43.0615V78.2289H38.7581V82.5323H34.4546V78.2289H30.1512V69.613H34.4546V56.6936H38.7581V43.7743H43.0615V35.1583H47.365V22.239H51.6684V9.31962H55.9719V5.01617H60.2753V9.31962ZM943.682 39.5159V48.1318H939.378V52.4353H935.075V56.7387H930.771V61.0422H926.468V65.3456H917.852V56.7297H922.155V52.4263H926.459V48.1228H930.762V39.5069H926.459V35.2035H922.155V30.9H917.852V22.2841H926.468V26.5875H930.771V30.891H935.075V35.1944H939.378V39.4979H943.682V39.5159ZM25.8297 22.239V30.8549H21.5263V35.1583H17.2228V39.4618H12.9194V48.0777H17.2228V52.3811H21.5263V56.6846H25.8297V65.3005H17.2138V60.9971H12.9103V56.6936H8.60689V52.3902H4.30344V48.0867H0V39.4708H4.30344V35.1674H8.60689V30.8639H12.9103V26.5605H17.2138V22.257H25.8297V22.239Z" fill="#ED0180"/>
</svg>
