<svg width="715" height="63" viewBox="0 0 715 63" fill="none" xmlns="http://www.w3.org/2000/svg">
<path d="M63.2842 55.4303C61.7598 54.4938 60.5294 53.2634 59.593 51.739C58.6565 50.2147 58.1917 48.5194 58.1917 46.6465V24.2119C58.1917 22.339 58.6565 20.6437 59.593 19.1194C60.5294 17.5951 61.7598 16.3646 63.2842 15.4282C64.8085 14.4917 66.5038 14.0269 68.3767 14.0269H101.591V23.6924H68.7459C68.4998 23.6924 68.2879 23.7813 68.117 23.9522C67.9461 24.1231 67.8572 24.335 67.8572 24.5811V46.2774C67.8572 46.5234 67.9461 46.7353 68.117 46.9062C68.2879 47.0771 68.4998 47.166 68.7459 47.166H101.659V56.8316H68.3767C66.5038 56.8316 64.8085 56.3667 63.2842 55.4303Z" fill="white"/>
<path d="M114.059 55.4303C112.535 54.4938 111.305 53.2634 110.368 51.739C109.432 50.2147 108.967 48.5194 108.967 46.6465V24.2119C108.967 22.339 109.432 20.6437 110.368 19.1194C111.305 17.5951 112.535 16.3646 114.059 15.4282C115.584 14.4917 117.279 14.0269 119.152 14.0269H142.249C144.122 14.0269 145.831 14.4985 147.383 15.4282C148.935 16.3646 150.165 17.5951 151.074 19.1194C151.983 20.6437 152.441 22.3458 152.441 24.2119V46.6465C152.441 48.5194 151.983 50.2147 151.074 51.739C150.165 53.2634 148.948 54.4938 147.417 55.4303C145.893 56.3667 144.17 56.8316 142.249 56.8316H119.152C117.279 56.8316 115.584 56.3667 114.059 55.4303ZM119.521 47.1592H141.88C142.126 47.1592 142.338 47.0771 142.509 46.8994C142.68 46.7285 142.769 46.5166 142.769 46.2705V24.5742C142.769 24.3281 142.68 24.1162 142.509 23.9454C142.338 23.7745 142.126 23.6856 141.88 23.6856H119.521C119.275 23.6856 119.063 23.7745 118.892 23.9454C118.721 24.1162 118.632 24.3281 118.632 24.5742V46.2705C118.632 46.5166 118.721 46.7285 118.892 46.8994C119.063 47.0703 119.275 47.1592 119.521 47.1592Z" fill="white"/>
<path d="M162.989 55.43C161.464 54.4935 160.248 53.2631 159.339 51.7388C158.429 50.2144 157.971 48.5192 157.971 46.6462V24.2117C157.971 22.3387 158.423 20.6435 159.339 19.1191C160.248 17.5948 161.464 16.3644 162.989 15.4279C164.513 14.4914 166.236 14.0266 168.157 14.0266H191.849V0.00671387H201.521V56.8381H168.163C166.243 56.8381 164.52 56.3733 162.996 55.4368L162.989 55.43ZM168.601 47.1589H190.967C191.213 47.1589 191.418 47.0769 191.596 46.8991C191.767 46.7282 191.856 46.5163 191.856 46.2703V24.574C191.856 24.3279 191.767 24.116 191.596 23.9451C191.425 23.7742 191.213 23.6853 190.967 23.6853H168.601C168.355 23.6853 168.143 23.7742 167.972 23.9451C167.801 24.116 167.712 24.3279 167.712 24.574V46.2703C167.712 46.5163 167.794 46.7282 167.972 46.8991C168.143 47.07 168.355 47.1589 168.601 47.1589Z" fill="white"/>
<path d="M212.738 55.4303C211.214 54.4938 209.984 53.2634 209.047 51.739C208.111 50.2147 207.646 48.5194 207.646 46.6465V24.2119C207.646 22.339 208.111 20.6437 209.047 19.1194C209.984 17.5951 211.214 16.3646 212.738 15.4282C214.263 14.4917 215.958 14.0269 217.831 14.0269H240.928C242.801 14.0269 244.51 14.4985 246.062 15.4282C247.614 16.3646 248.844 17.5951 249.753 19.1194C250.662 20.6437 251.12 22.3458 251.12 24.2119V40.303H217.318V46.2842C217.318 46.5303 217.407 46.7422 217.578 46.9131C217.749 47.084 217.961 47.1728 218.207 47.1728H251.12V56.8384H217.838C215.965 56.8384 214.269 56.3736 212.745 55.4371L212.738 55.4303ZM217.311 31.5876H241.448V24.5742C241.448 24.3281 241.359 24.1162 241.188 23.9454C241.017 23.7745 240.805 23.6856 240.559 23.6856H218.2C217.954 23.6856 217.742 23.7745 217.571 23.9454C217.4 24.1162 217.311 24.3281 217.311 24.5742V31.5876Z" fill="white"/>
<path d="M286.543 55.4302C285.018 54.4937 283.788 53.2633 282.851 51.7389C281.915 50.2146 281.45 48.5193 281.45 46.6464V0.888672H291.116V14.0268H307.795V23.6923H291.116V46.2773C291.116 46.5233 291.198 46.7352 291.376 46.9061C291.546 47.077 291.758 47.1659 292.004 47.1659H307.802V56.8315H291.635C289.762 56.8315 288.067 56.3666 286.543 55.4302Z" fill="white"/>
<path d="M314.951 56.8314V0H324.617V14.0199H348.234C350.107 14.0199 351.802 14.4915 353.327 15.4212C354.851 16.3577 356.081 17.5881 357.018 19.1124C357.954 20.6368 358.419 22.3388 358.419 24.205V56.8246H348.747V24.5741C348.747 24.328 348.658 24.1161 348.487 23.9452C348.316 23.7743 348.104 23.6855 347.858 23.6855H325.492C325.246 23.6855 325.034 23.7743 324.863 23.9452C324.692 24.1161 324.603 24.328 324.603 24.5741V56.8246H314.938L314.951 56.8314Z" fill="white"/>
<path d="M369.055 55.4303C367.531 54.4938 366.301 53.2634 365.364 51.739C364.428 50.2147 363.963 48.5194 363.963 46.6465V24.2119C363.963 22.339 364.428 20.6437 365.364 19.1194C366.301 17.5951 367.531 16.3646 369.055 15.4282C370.58 14.4917 372.275 14.0269 374.148 14.0269H397.246C399.119 14.0269 400.827 14.4985 402.379 15.4282C403.931 16.3646 405.161 17.5951 406.07 19.1194C406.979 20.6437 407.437 22.3458 407.437 24.2119V40.303H373.635V46.2842C373.635 46.5303 373.724 46.7422 373.895 46.9131C374.066 47.084 374.278 47.1728 374.524 47.1728H407.437V56.8384H374.155C372.282 56.8384 370.587 56.3736 369.062 55.4371L369.055 55.4303ZM373.628 31.5876H397.765V24.5742C397.765 24.3281 397.676 24.1162 397.505 23.9454C397.334 23.7745 397.123 23.6856 396.876 23.6856H374.517C374.271 23.6856 374.059 23.7745 373.888 23.9454C373.717 24.1162 373.628 24.3281 373.628 24.5742V31.5876Z" fill="white"/>
<path d="M437.767 56.8314V10.1851C437.767 8.31213 438.232 6.61689 439.169 5.09254C440.105 3.5682 441.336 2.33778 442.86 1.4013C444.384 0.464822 446.086 0 447.952 0H464.119V9.74077H448.322C448.075 9.74077 447.864 9.82963 447.693 10.0005C447.522 10.1714 447.433 10.3833 447.433 10.6294V14.0267H464.112V23.6923H447.433V56.8314H437.767Z" fill="white"/>
<path d="M475.295 55.4303C473.743 54.4938 472.513 53.2634 471.604 51.739C470.695 50.2147 470.237 48.5194 470.237 46.6465V14.0269H479.902V46.2774C479.902 46.5234 479.984 46.7353 480.162 46.9062C480.333 47.0771 480.545 47.166 480.791 47.166H503.157C503.403 47.166 503.608 47.084 503.786 46.9062C503.957 46.7353 504.046 46.5234 504.046 46.2774V14.0269H513.711V46.6465C513.711 48.5194 513.253 50.2147 512.344 51.739C511.435 53.2634 510.218 54.4938 508.694 55.4303C507.169 56.3667 505.447 56.8316 503.526 56.8316H480.422C478.549 56.8316 476.84 56.3667 475.295 55.4303Z" fill="white"/>
<path d="M525.004 55.4302C523.479 54.4937 522.249 53.2633 521.312 51.7389C520.376 50.2146 519.911 48.5193 519.911 46.6464V0.888672H529.577V14.0268H546.256V23.6923H529.577V46.2773C529.577 46.5233 529.659 46.7352 529.836 46.9061C530.007 47.077 530.219 47.1659 530.465 47.1659H546.263V56.8315H530.096C528.223 56.8315 526.528 56.3666 525.004 55.4302Z" fill="white"/>
<path d="M557.295 55.4303C555.743 54.4938 554.513 53.2634 553.604 51.739C552.695 50.2147 552.237 48.5194 552.237 46.6465V14.0269H561.902V46.2774C561.902 46.5234 561.984 46.7353 562.162 46.9062C562.333 47.0771 562.545 47.166 562.791 47.166H585.157C585.403 47.166 585.608 47.084 585.786 46.9062C585.957 46.7353 586.046 46.5234 586.046 46.2774V14.0269H595.711V46.6465C595.711 48.5194 595.253 50.2147 594.344 51.739C593.435 53.2634 592.218 54.4938 590.694 55.4303C589.17 56.3667 587.447 56.8316 585.526 56.8316H562.422C560.549 56.8316 558.84 56.3667 557.295 55.4303Z" fill="white"/>
<path d="M603.456 56.8316V24.2119C603.456 22.339 603.921 20.6437 604.857 19.1194C605.794 17.5951 607.038 16.3646 608.583 15.4282C610.134 14.4917 611.816 14.0269 613.641 14.0269H637.409V23.6924H614.01C613.764 23.6924 613.552 23.7813 613.381 23.9522C613.211 24.1231 613.122 24.335 613.122 24.5811V56.8316H603.449H603.456Z" fill="white"/>
<path d="M647.519 55.4303C645.994 54.4938 644.764 53.2634 643.827 51.739C642.891 50.2147 642.426 48.5194 642.426 46.6465V24.2119C642.426 22.339 642.891 20.6437 643.827 19.1194C644.764 17.5951 645.994 16.3646 647.519 15.4282C649.043 14.4917 650.738 14.0269 652.611 14.0269H675.709C677.582 14.0269 679.291 14.4985 680.842 15.4282C682.394 16.3646 683.624 17.5951 684.534 19.1194C685.443 20.6437 685.901 22.3458 685.901 24.2119V40.303H652.098V46.2842C652.098 46.5303 652.187 46.7422 652.358 46.9131C652.529 47.084 652.741 47.1728 652.987 47.1728H685.901V56.8384H652.618C650.745 56.8384 649.05 56.3736 647.525 55.4371L647.519 55.4303ZM652.092 31.5876H676.228V24.5742C676.228 24.3281 676.139 24.1162 675.968 23.9454C675.798 23.7745 675.586 23.6856 675.34 23.6856H652.98C652.734 23.6856 652.522 23.7745 652.351 23.9454C652.18 24.1162 652.092 24.3281 652.092 24.5742V31.5876Z" fill="white"/>
<path d="M45.6688 7.06126H48.9294V13.5893H45.6688V23.3779H42.4082V33.1665H39.1476V39.6946H35.8871V49.4832H32.6265V59.2718H29.3659V62.5324H26.1053V59.2718H22.8447V52.7438H26.1053V42.9551H29.3659V33.1665H32.6265V26.6385H35.8871V16.8499H39.1476V7.06126H42.4082V3.80066H45.6688V7.06126ZM715 29.9401V36.4681H711.739V39.7287H708.479V42.9893H705.218V46.2499H701.958V49.5105H695.43V42.9825H698.69V39.7219H701.951V36.4613H705.211V29.9333H701.951V26.6727H698.69V23.4121H695.43V16.8841H701.958V20.1447H705.218V23.4052H708.479V26.6658H711.739V29.9264H715V29.9401ZM19.5704 16.8499V23.3779H16.3098V26.6385H13.0492V29.8991H9.78862V36.4271H13.0492V39.6877H16.3098V42.9483H19.5704V49.4763H13.0424V46.2157H9.78178V42.9551H6.52119V39.6946H3.26059V36.434H0V29.9059H3.26059V26.6453H6.52119V23.3847H9.78178V20.1241H13.0424V16.8635H19.5704V16.8499Z" fill="#ED0180"/>
</svg>
