<svg width="77" height="73" viewBox="0 0 77 73" fill="none" xmlns="http://www.w3.org/2000/svg">
<path d="M40.6518 38.8293L76.3331 10.7633C76.542 10.599 76.7108 10.3888 76.8264 10.1488C76.942 9.90884 77.0014 9.6454 77 9.37874V0.87714C76.9998 0.712837 76.9537 0.551891 76.867 0.412589C76.7803 0.273288 76.6565 0.161215 76.5097 0.0891075C76.3628 0.0169998 76.1987 -0.0122529 76.0362 0.00467403C75.8736 0.0216009 75.719 0.084029 75.5899 0.184864L38.4959 29.3645L1.41004 0.184864C1.28099 0.084029 1.1264 0.0216009 0.963814 0.00467403C0.801231 -0.0122529 0.637177 0.0169998 0.490311 0.0891075C0.343437 0.161215 0.219635 0.273288 0.132957 0.412589C0.0462875 0.551891 0.000228882 0.712837 0 0.87714V9.37601C0.000984192 9.64225 0.0614166 9.90488 0.176842 10.1445C0.292267 10.3841 0.45974 10.5947 0.666916 10.7606L36.3264 38.8293C36.9429 39.3168 37.7046 39.5819 38.4891 39.5819C39.2736 39.5819 40.0353 39.3168 40.6518 38.8293ZM40.6518 72.2501L76.3331 44.1842C76.542 44.0199 76.7108 43.8097 76.8264 43.5697C76.942 43.3297 77.0014 43.0662 77 42.7996V34.3089C76.9998 34.1446 76.9537 33.9837 76.867 33.8444C76.7803 33.7051 76.6565 33.593 76.5097 33.5209C76.3628 33.4488 76.1987 33.4195 76.0362 33.4365C75.8736 33.4534 75.719 33.5158 75.5899 33.6167L38.4959 62.7853L1.41004 33.6085C1.28099 33.5076 1.1264 33.4452 0.963814 33.4283C0.801231 33.4113 0.637177 33.4406 0.490311 33.5127C0.343437 33.5848 0.219635 33.6969 0.132957 33.8362C0.0462875 33.9755 0.000228882 34.1364 0 34.3007V42.7914C0.000984192 43.0576 0.0614166 43.3203 0.176842 43.5599C0.292267 43.7995 0.45974 44.01 0.666916 44.1759L36.3264 72.2446C36.9423 72.733 37.7037 72.999 38.4882 73C39.2726 73.001 40.0346 72.7369 40.6518 72.2501Z" fill="#84D4EF"/>
</svg>
