<svg width="887" height="63" viewBox="0 0 887 63" fill="none" xmlns="http://www.w3.org/2000/svg">
<path d="M132.341 9.9195C131.48 10.1656 131.111 10.1903 130.594 10.1656C129.572 10.1164 128.747 9.53798 128.513 8.54111H134.655C134.668 8.33189 134.692 8.20882 134.692 7.98729V7.96268C134.692 5.7474 133.449 3.67981 130.471 3.67981C127.898 3.67981 126.138 5.55049 126.138 7.8273C126.138 10.2272 127.873 11.9133 130.446 11.9133C130.84 11.9133 131.406 11.9009 132.329 11.6671V9.9195H132.341ZM130.495 5.50126C131.591 5.50126 132.28 6.17815 132.428 7.16272H128.501C128.71 6.15354 129.412 5.50126 130.483 5.50126H130.495Z" fill="white"/>
<path d="M164.75 7.67966C164.75 5.52592 163.433 3.83984 160.663 3.83984C157.894 3.83984 156.564 5.52592 156.564 7.67966V11.901H159.137V7.51967C159.186 6.71971 159.494 5.77206 160.663 5.77206C161.833 5.77206 162.165 6.71971 162.202 7.51967V11.901H164.75V7.67966Z" fill="white"/>
<path d="M159.113 7.67966C159.113 5.52592 157.796 3.83984 155.026 3.83984C152.257 3.83984 150.927 5.52592 150.927 7.67966V11.901H153.5V7.51967C153.549 6.71971 153.857 5.77206 155.026 5.77206C156.196 5.77206 156.528 6.71971 156.565 7.51967V11.901H159.113V7.67966Z" fill="white"/>
<path d="M120.673 3.27361V5.36583H125.325V7.51957H120.673V11.9009H118.1V1.11987H126.458V3.27361H120.673Z" fill="white"/>
<path d="M189.158 3.75366H186.597V11.901H189.158V3.75366Z" fill="white"/>
<path d="M189.158 1.10767H186.597V2.85527H189.158V1.10767Z" fill="white"/>
<path d="M141.241 10.1164C141.056 10.1533 140.859 10.1656 140.674 10.1656C139.074 10.1656 137.782 9.09491 137.782 7.76574C137.782 6.43658 139.074 5.36586 140.674 5.36586C140.871 5.36586 141.056 5.37817 141.241 5.41509V3.74133C140.896 3.6921 140.527 3.66748 140.133 3.66748C137.376 3.66748 135.283 5.4274 135.283 7.79036C135.283 9.45182 136.305 10.6825 137.536 11.3348C138.385 11.7779 139.296 11.9132 140.047 11.9255C140.49 11.9255 140.871 11.8886 141.241 11.8271V10.1287V10.1164Z" fill="white"/>
<path d="M145.844 3.66748C143.444 3.66748 141.499 5.51355 141.499 7.79036C141.499 10.0672 143.444 11.9132 145.844 11.9132C148.244 11.9132 150.189 10.0672 150.189 7.79036C150.189 5.51355 148.244 3.66748 145.844 3.66748ZM145.844 10.0918C144.318 10.0918 143.985 9.05799 143.985 7.79036C143.985 6.52273 144.318 5.48893 145.844 5.48893C147.37 5.48893 147.703 6.52273 147.703 7.79036C147.703 9.05799 147.383 10.0918 145.844 10.0918Z" fill="white"/>
<path d="M185.477 10.1534C185.293 10.1903 185.096 10.2026 184.911 10.2026C183.311 10.2026 182.019 9.1319 182.019 7.80273C182.019 6.47357 183.311 5.40285 184.911 5.40285C185.108 5.40285 185.293 5.41516 185.477 5.45208V3.77832C185.133 3.72909 184.763 3.70447 184.37 3.70447C181.612 3.70447 179.52 5.46439 179.52 7.82735C179.52 9.48881 180.542 10.7195 181.772 11.3718C182.622 11.8148 183.533 11.9502 184.283 11.9625C184.727 11.9625 185.108 11.9256 185.477 11.8641V10.1657V10.1534Z" fill="white"/>
<path d="M194.155 3.70447C191.755 3.70447 189.81 5.55054 189.81 7.82735C189.81 10.1042 191.755 11.9502 194.155 11.9502C196.555 11.9502 198.5 10.1042 198.5 7.82735C198.5 5.55054 196.555 3.70447 194.155 3.70447ZM194.142 10.1288C192.616 10.1288 192.284 9.09498 192.284 7.82735C192.284 6.55972 192.616 5.52592 194.142 5.52592C195.669 5.52592 196.001 6.55972 196.001 7.82735C196.001 9.09498 195.681 10.1288 194.142 10.1288Z" fill="white"/>
<path d="M179.606 3.79059C179.606 3.79059 179.224 3.75366 178.929 3.75366C176.27 3.75366 174.633 5.21821 174.633 7.16273V11.901H177.23V7.29811C177.23 6.31354 177.563 6.03048 178.117 5.79664C178.486 5.63665 179.015 5.52588 179.606 5.51358V3.76597V3.79059Z" fill="white"/>
<path d="M171.568 9.91948C170.707 10.1656 170.338 10.1902 169.821 10.1656C168.811 10.1164 167.974 9.53796 167.741 8.54109H173.882C173.895 8.34417 173.919 8.2088 173.919 7.98727V7.95035C173.919 5.73508 172.676 3.66748 169.698 3.66748C167.125 3.66748 165.365 5.53816 165.365 7.81497C165.365 10.2149 167.1 11.9009 169.673 11.9009C170.067 11.9009 170.633 11.8886 171.556 11.6548V9.91948H171.568ZM169.722 5.50124C170.818 5.50124 171.507 6.17813 171.655 7.1627H167.728C167.937 6.15352 168.639 5.50124 169.71 5.50124H169.722Z" fill="white"/>
<path d="M168.565 2.70756L170.375 0L172.48 0.873802L170.424 2.70756H168.565Z" fill="white"/>
<path d="M123.824 19.9252V21.9682H128.341V24.0604H123.824V28.3063H121.325V17.833H129.437V19.9252H123.824Z" fill="white"/>
<path d="M132.39 19.9252V21.9682H136.908V24.0604H132.39V28.3063H129.892V17.833H138.003V19.9252H132.39Z" fill="white"/>
<path d="M132.39 26.2141V24.1835H136.908V22.0789H132.39V17.833H129.892V28.3063H138.003V26.2141H132.39Z" fill="white"/>
<path d="M144.281 21.4882C144.281 21.2421 144.231 20.9959 144.133 20.7621C144.034 20.5283 143.911 20.3313 143.739 20.159C143.567 19.9867 143.357 19.8514 143.111 19.7529C142.865 19.6545 142.582 19.6052 142.274 19.6052H140.883V23.3712H142.311C142.619 23.3712 142.902 23.322 143.148 23.2112C143.394 23.1004 143.604 22.9528 143.764 22.7805C143.924 22.6082 144.059 22.4112 144.145 22.1897C144.231 21.9682 144.281 21.7344 144.281 21.5128V21.4882ZM142.237 25.168H140.883V28.3186H138.373V17.8453H142.471C143.148 17.8453 143.751 17.9315 144.293 18.1161C144.834 18.2884 145.29 18.5345 145.671 18.8545C146.053 19.1745 146.336 19.5437 146.545 19.9867C146.742 20.4298 146.853 20.9098 146.853 21.4513V21.4759C146.853 22.079 146.73 22.6205 146.496 23.0758C146.262 23.5435 145.93 23.925 145.511 24.245C145.105 24.5527 144.613 24.7865 144.047 24.9465C143.481 25.1065 142.89 25.1803 142.25 25.1803L142.237 25.168ZM118.1 28.3063V17.833H120.574V28.3063H118.1Z" fill="white"/>
<path d="M140.687 40.2072C140.687 39.4811 140.81 38.8535 141.056 38.3366C141.302 37.8197 141.622 37.3766 142.004 37.032C142.385 36.6751 142.828 36.4044 143.321 36.1951C143.813 35.9982 144.293 35.8505 144.773 35.7521C145.253 35.6536 145.709 35.6167 146.127 35.6167C146.558 35.6167 146.903 35.6536 147.173 35.7275V37.5735C146.878 37.5243 146.521 37.5366 146.09 37.5858C145.659 37.6351 145.253 37.7704 144.847 37.9674C144.441 38.1643 144.096 38.4473 143.813 38.8166C143.53 39.1858 143.382 39.6411 143.382 40.1949C143.382 40.7488 143.53 41.2287 143.813 41.5979C144.096 41.9672 144.441 42.2502 144.835 42.4471C145.229 42.6441 145.647 42.7671 146.078 42.8164C146.509 42.8656 146.878 42.8533 147.173 42.7917V44.687C146.903 44.7486 146.546 44.7855 146.127 44.7978C145.696 44.7978 145.253 44.7609 144.773 44.6624C144.293 44.564 143.801 44.4163 143.321 44.2194C142.828 44.0224 142.385 43.7394 142.004 43.3825C141.622 43.0256 141.302 42.5948 141.056 42.0656C140.81 41.5487 140.687 40.9211 140.687 40.1949" fill="white"/>
<path d="M138.816 38.9766C139.837 39.1981 140.65 39.5181 141.228 39.9365C141.807 40.355 142.102 40.9703 142.102 41.758C142.102 42.1518 142.004 42.5333 141.794 42.9025C141.585 43.2717 141.302 43.5917 140.92 43.8748C140.551 44.1578 140.108 44.3917 139.579 44.5517C139.062 44.724 138.483 44.8101 137.868 44.8101C137.339 44.8101 136.772 44.7363 136.145 44.6009C135.517 44.4655 134.938 44.2809 134.409 44.0348V41.8441C134.926 42.1395 135.492 42.361 136.108 42.521C136.723 42.681 137.314 42.7671 137.868 42.7918C138.139 42.7918 138.36 42.7795 138.533 42.7179C138.705 42.6564 138.828 42.5825 138.926 42.5087C139.025 42.4225 139.086 42.3364 139.111 42.2502C139.148 42.1518 139.16 42.0779 139.16 42.0164V41.8318C139.16 41.7457 139.111 41.6595 139.025 41.5487C138.939 41.4503 138.779 41.3395 138.545 41.2288C138.311 41.118 137.966 41.0195 137.499 40.9211C136.945 40.8103 136.44 40.6996 135.997 40.5765C135.554 40.4534 135.185 40.3057 134.889 40.1088C134.594 39.9119 134.372 39.6781 134.225 39.4073C134.077 39.1242 134.015 38.7673 134.052 38.3366C134.089 37.9428 134.2 37.5859 134.409 37.2536C134.618 36.9213 134.902 36.6382 135.258 36.4044C135.615 36.1582 136.046 35.9736 136.539 35.8382C137.031 35.7029 137.572 35.629 138.163 35.629C138.323 35.629 138.483 35.629 138.643 35.6413C138.803 35.6413 138.963 35.666 139.111 35.6906V37.4751C138.963 37.4505 138.828 37.4382 138.693 37.4259C138.557 37.4259 138.422 37.4136 138.311 37.4136C137.831 37.4136 137.499 37.4874 137.314 37.6474C137.129 37.7951 137.043 37.9797 137.043 38.1766C137.043 38.2504 137.056 38.3243 137.092 38.3858C137.129 38.4473 137.203 38.5089 137.326 38.5704C137.449 38.632 137.622 38.6935 137.856 38.7673C138.089 38.8412 138.397 38.915 138.803 39.0012L138.816 38.9766Z" fill="white"/>
<path d="M134.631 38.6073C134.446 38.0289 134.163 37.512 133.794 37.0689C133.412 36.6259 132.932 36.269 132.329 35.9982C131.738 35.7397 131.025 35.6044 130.188 35.6044C129.474 35.6044 128.821 35.7274 128.218 35.9736C127.627 36.2197 127.11 36.552 126.692 36.9705C126.273 37.3889 125.941 37.8812 125.707 38.435C125.473 39.0011 125.35 39.5919 125.35 40.2318C125.35 40.9087 125.461 41.5241 125.695 42.0779C125.929 42.644 126.249 43.124 126.68 43.5178C127.098 43.924 127.615 44.2316 128.194 44.4655C128.784 44.687 129.437 44.8101 130.163 44.8101C130.385 44.8101 130.655 44.7978 130.988 44.7731C131.32 44.7485 131.751 44.6624 132.28 44.5393V42.5948C132.034 42.6563 131.825 42.7179 131.64 42.7548C131.455 42.804 131.295 42.8286 131.148 42.8409C131 42.8532 130.865 42.8655 130.729 42.8779C130.606 42.8779 130.471 42.8779 130.323 42.8779C129.745 42.8532 129.252 42.6933 128.834 42.3733C128.415 42.0656 128.132 41.6225 127.984 41.0564H134.877C134.877 40.9456 134.902 40.8472 134.902 40.761C134.902 40.6749 134.902 40.5641 134.902 40.4534V40.4164C134.902 39.8011 134.816 39.198 134.631 38.6196V38.6073ZM127.984 39.5057C128.107 38.9273 128.354 38.4842 128.735 38.1396C129.117 37.8073 129.609 37.635 130.212 37.635C130.815 37.635 131.32 37.8073 131.689 38.1519C132.059 38.4965 132.292 38.9396 132.379 39.5057H127.984Z" fill="white"/>
<path d="M122.729 37.7458C123.369 37.8935 123.947 38.0781 124.44 38.275C124.932 38.4719 125.363 38.7057 125.707 38.9765C126.052 39.2473 126.311 39.5672 126.495 39.9365C126.68 40.3057 126.766 40.7487 126.766 41.241V41.2779C126.766 41.8564 126.655 42.3733 126.421 42.804C126.187 43.2471 125.867 43.6163 125.449 43.9239C125.03 44.2316 124.538 44.4655 123.972 44.6255C123.406 44.7854 122.778 44.8593 122.089 44.8593C120.156 44.8593 118.433 44.2439 116.931 43.0132L118.581 41.2164C118.864 41.4379 119.147 41.6348 119.418 41.7948C119.689 41.9671 119.972 42.1148 120.255 42.2256C120.538 42.3486 120.833 42.4348 121.141 42.5086C121.449 42.5702 121.781 42.6071 122.138 42.6071C122.716 42.6071 123.172 42.5086 123.492 42.324C123.812 42.1271 123.972 41.8687 123.972 41.5241V41.4871C123.972 41.3272 123.947 41.1795 123.91 41.0564C123.861 40.9333 123.763 40.8103 123.603 40.6995C123.443 40.5887 123.209 40.478 122.901 40.3672C122.593 40.2564 122.175 40.1457 121.633 40.0226C120.993 39.8749 120.415 39.7026 119.898 39.5426C119.381 39.3703 118.938 39.1611 118.568 38.8904C118.199 38.6319 117.916 38.2996 117.719 37.9181C117.522 37.5366 117.424 37.0443 117.424 36.4659V36.4289C117.424 35.8997 117.535 35.4321 117.756 34.989C117.978 34.5583 118.285 34.189 118.679 33.8937C119.073 33.5983 119.541 33.3645 120.082 33.1922C120.624 33.0199 121.227 32.9337 121.879 32.9337C122.249 32.9337 122.63 32.9706 122.999 33.0445C123.381 33.1183 123.689 33.1922 123.923 33.2414V35.6659C123.676 35.5674 123.356 35.469 122.963 35.3582C122.581 35.2475 122.199 35.1982 121.818 35.1982C121.289 35.1982 120.882 35.2967 120.599 35.4813C120.329 35.6782 120.193 35.912 120.193 36.1951V36.232C120.193 36.4289 120.218 36.5889 120.279 36.7243C120.329 36.8597 120.452 36.9828 120.624 37.0935C120.796 37.2043 121.055 37.315 121.387 37.4135C121.719 37.512 122.163 37.6227 122.704 37.7581L122.729 37.7458Z" fill="white"/>
<path d="M215.559 56.0463C215.559 53.8926 214.242 52.2065 211.473 52.2065C208.704 52.2065 207.374 53.8926 207.374 56.0463V60.2677H209.947V55.8864C209.996 55.0864 210.304 54.1388 211.473 54.1388C212.642 54.1388 212.975 55.0864 213.012 55.8864V60.2677H215.559V56.0463Z" fill="white"/>
<path d="M209.922 56.0463C209.922 53.8926 208.605 52.2065 205.836 52.2065C203.066 52.2065 201.737 53.8926 201.737 56.0463V60.2677H204.31V55.8864C204.359 55.0864 204.666 54.1388 205.836 54.1388C207.005 54.1388 207.337 55.0864 207.374 55.8864V60.2677H209.922V56.0463Z" fill="white"/>
<path d="M137.905 55.9848C137.905 53.8311 136.588 52.145 133.818 52.145C131.049 52.145 129.72 53.8311 129.72 55.9848V60.2062H132.292V55.8248C132.341 55.0249 132.649 54.0772 133.818 54.0772C134.988 54.0772 135.32 55.0249 135.357 55.8248V60.2062H137.905V55.9848Z" fill="white"/>
<path d="M128.957 52.2065H126.396V60.2677H128.957V52.2065Z" fill="white"/>
<path d="M128.957 49.5974H126.396V51.345H128.957V49.5974Z" fill="white"/>
<path d="M151.469 52.2065H148.909V60.2062H151.469V52.2065Z" fill="white"/>
<path d="M151.469 49.5974H148.909V51.345H151.469V49.5974Z" fill="white"/>
<path d="M147.419 49.5974H144.859V60.2061H147.419V49.5974Z" fill="white"/>
<path d="M262.713 52.2065H260.153V60.2677H262.713V52.2065Z" fill="white"/>
<path d="M262.713 49.6097H260.153V51.3573H262.713V49.6097Z" fill="white"/>
<path d="M275.17 52.2065H272.61V60.2677H275.17V52.2065Z" fill="white"/>
<path d="M275.17 49.6097H272.61V51.3573H275.17V49.6097Z" fill="white"/>
<path d="M157.685 58.5939C157.5 58.6309 157.303 58.6432 157.118 58.6432C155.518 58.6432 154.226 57.5724 154.226 56.2433C154.226 54.9141 155.518 53.8434 157.118 53.8434C157.315 53.8434 157.5 53.8557 157.685 53.8926V52.2189C157.34 52.1696 156.971 52.145 156.577 52.145C153.82 52.145 151.727 53.9049 151.727 56.2679C151.727 57.9294 152.749 59.1601 153.98 59.8123C154.829 60.2554 155.74 60.3908 156.491 60.4031C156.934 60.4031 157.315 60.3662 157.685 60.3046V58.6062V58.5939Z" fill="white"/>
<path d="M176.283 52.145C173.883 52.145 171.938 53.9911 171.938 56.2679C171.938 58.5447 173.883 60.3908 176.283 60.3908C178.683 60.3908 180.628 58.5447 180.628 56.2679C180.628 53.9911 178.683 52.145 176.283 52.145ZM176.271 58.5693C174.745 58.5693 174.412 57.5355 174.412 56.2679C174.412 55.0003 174.745 53.9665 176.271 53.9665C177.797 53.9665 178.129 55.0003 178.129 56.2679C178.129 57.5355 177.809 58.5693 176.271 58.5693Z" fill="white"/>
<path d="M142.828 52.3912C140.502 52.3912 138.619 54.1758 138.619 56.391C138.619 58.6063 140.502 60.3908 142.828 60.3908C145.155 60.3908 147.038 58.6063 147.038 56.391C147.038 54.1758 145.155 52.3912 142.828 52.3912ZM142.865 58.6186C141.425 58.6186 141.118 57.6217 141.118 56.391C141.118 55.1603 141.425 54.1635 142.865 54.1635C144.305 54.1635 144.613 55.1603 144.613 56.391C144.613 57.6217 144.318 58.6186 142.865 58.6186Z" fill="white"/>
<path d="M219.03 52.2062H216.47V62.9995H219.03V52.2062Z" fill="white"/>
<path d="M221.246 60.2677C223.597 60.2677 225.492 58.4585 225.492 56.2309C225.492 54.0034 223.597 52.1942 221.246 52.1942C218.895 52.1942 217 54.0034 217 56.2309C217 58.4585 218.895 60.2677 221.246 60.2677ZM221.147 53.991C222.563 53.991 222.871 55.0002 222.871 56.2432C222.871 57.4863 222.563 58.4954 221.147 58.4954C219.732 58.4954 219.424 57.4863 219.424 56.2432C219.424 55.0002 219.72 53.991 221.147 53.991Z" fill="white"/>
<path d="M171.938 60.4893C171.938 60.4893 171.556 60.5262 171.261 60.5262C168.602 60.5262 166.965 59.0617 166.965 57.1172V51.1729H169.562V56.9695C169.562 57.954 169.895 58.2371 170.449 58.4709C170.818 58.6309 171.347 58.7417 171.938 58.754V60.5016V60.4893Z" fill="white"/>
<path d="M230.477 52.2312C230.477 52.2312 230.108 52.2065 229.813 52.2065C227.203 52.2065 225.603 53.6465 225.603 55.5787V60.2677H228.151V55.7264C228.151 54.7541 228.471 54.4834 229.025 54.2495C229.382 54.0895 229.899 53.9911 230.49 53.9788V52.2435L230.477 52.2312Z" fill="white"/>
<path d="M259.92 52.2312C259.92 52.2312 259.538 52.2065 259.243 52.2065C256.609 52.2065 254.996 53.6465 254.996 55.5787V60.2677H257.569V55.7264C257.569 54.7541 257.901 54.4834 258.442 54.2495C258.799 54.0895 259.329 53.9911 259.92 53.9788V52.2435V52.2312Z" fill="white"/>
<path d="M196.124 52.0835V54.0649H200.654V56.1202H196.124V60.2677H193.626V50.0282H201.737V52.0835H196.124Z" fill="white"/>
<path d="M196.124 58.2001V56.1818H200.654V54.1142H196.124V49.9175H193.626V60.2677H201.737V58.2001H196.124Z" fill="white"/>
<path d="M185.293 55.148C186.191 55.3449 186.893 55.6157 187.41 55.9849C187.915 56.3541 188.173 56.8833 188.173 57.5848C188.173 57.9294 188.087 58.2617 187.902 58.5817C187.718 58.9017 187.471 59.1847 187.139 59.4309C186.819 59.677 186.425 59.8739 185.97 60.0216C185.514 60.1693 185.01 60.2431 184.468 60.2431C184.013 60.2431 183.508 60.1816 182.954 60.0585C182.413 59.9355 181.896 59.7755 181.428 59.5662V57.6463C181.883 57.9048 182.376 58.1017 182.917 58.2371C183.459 58.3724 183.976 58.4586 184.468 58.4709C184.702 58.4709 184.899 58.4709 185.047 58.4094C185.194 58.3601 185.305 58.2986 185.391 58.2248C185.477 58.1509 185.527 58.0771 185.551 57.9909C185.576 57.9048 185.601 57.8433 185.601 57.7817V57.6217C185.601 57.5479 185.564 57.474 185.49 57.3756C185.416 57.2894 185.268 57.191 185.071 57.0925C184.862 56.9941 184.567 56.9079 184.16 56.8218C183.668 56.7233 183.237 56.6248 182.843 56.5141C182.45 56.4033 182.13 56.2679 181.871 56.1079C181.613 55.9356 181.416 55.7387 181.293 55.4926C181.157 55.2465 181.108 54.9388 181.145 54.5573C181.169 54.2127 181.28 53.8927 181.465 53.6096C181.649 53.3265 181.896 53.0681 182.216 52.8589C182.536 52.6497 182.905 52.4774 183.336 52.3666C183.767 52.2435 184.247 52.182 184.764 52.182C184.911 52.182 185.047 52.182 185.182 52.1943C185.317 52.1943 185.453 52.2189 185.588 52.2312V53.7942C185.465 53.7696 185.342 53.7573 185.219 53.745C185.096 53.745 184.985 53.7327 184.887 53.7327C184.468 53.7327 184.173 53.7942 184.013 53.9296C183.853 54.065 183.779 54.2127 183.779 54.385C183.779 54.4465 183.791 54.508 183.828 54.5696C183.853 54.6188 183.927 54.6803 184.025 54.7296C184.136 54.7788 184.284 54.8403 184.48 54.9019C184.677 54.9634 184.96 55.0372 185.317 55.1111L185.293 55.148ZM243.377 55.148C244.275 55.3449 244.977 55.6157 245.482 55.9849C245.986 56.3541 246.245 56.8833 246.245 57.5848C246.245 57.9294 246.159 58.2617 245.974 58.5817C245.789 58.9017 245.543 59.1847 245.211 59.4309C244.891 59.677 244.497 59.8739 244.041 60.0216C243.586 60.1693 243.094 60.2431 242.54 60.2431C242.084 60.2431 241.58 60.1816 241.038 60.0585C240.497 59.9355 239.992 59.7755 239.524 59.5662V57.6463C239.98 57.9048 240.472 58.1017 241.014 58.2371C241.555 58.3724 242.072 58.4586 242.552 58.4709C242.786 58.4709 242.983 58.4709 243.131 58.4094C243.278 58.3601 243.389 58.2986 243.475 58.2248C243.561 58.1509 243.611 58.0771 243.635 57.9909C243.66 57.9048 243.685 57.8433 243.685 57.7817V57.6217C243.685 57.5479 243.648 57.474 243.574 57.3756C243.5 57.2894 243.352 57.191 243.155 57.0925C242.946 56.9941 242.651 56.9079 242.244 56.8218C241.752 56.7233 241.321 56.6248 240.927 56.5264C240.546 56.4156 240.214 56.2802 239.955 56.1202C239.697 55.948 239.5 55.751 239.377 55.5049C239.253 55.2588 239.192 54.9511 239.229 54.5696C239.253 54.225 239.364 53.905 239.549 53.6219C239.733 53.3388 239.98 53.0927 240.3 52.8712C240.62 52.662 240.989 52.502 241.42 52.3789C241.851 52.2558 242.318 52.1943 242.835 52.1943C242.983 52.1943 243.118 52.1943 243.254 52.2066C243.389 52.2066 243.525 52.2312 243.66 52.2435V53.8065C243.537 53.7819 243.414 53.7696 243.291 53.7573C243.168 53.7573 243.057 53.745 242.958 53.745C242.54 53.745 242.244 53.8065 242.097 53.9419C241.937 54.0773 241.863 54.225 241.863 54.3973C241.863 54.4588 241.875 54.5203 241.912 54.5819C241.937 54.6311 242.011 54.6926 242.109 54.7419C242.22 54.7911 242.368 54.8526 242.564 54.9142C242.761 54.9757 243.044 55.0495 243.401 55.1234L243.377 55.148ZM279.601 55.0865C280.499 55.2834 281.213 55.5541 281.718 55.9234C282.223 56.2926 282.481 56.8341 282.481 57.5233C282.481 57.8679 282.395 58.2002 282.21 58.5201C282.026 58.8401 281.779 59.1232 281.447 59.3816C281.115 59.6278 280.733 59.837 280.278 59.9847C279.822 60.1324 279.318 60.2062 278.776 60.2062C278.321 60.2062 277.816 60.1447 277.262 60.0216C276.721 59.8985 276.204 59.7385 275.736 59.5293V57.5971C276.191 57.8556 276.684 58.0525 277.225 58.2002C277.767 58.3355 278.284 58.4217 278.776 58.434C279.022 58.434 279.207 58.434 279.355 58.3724C279.502 58.3232 279.613 58.2617 279.699 58.1879C279.785 58.114 279.835 58.0402 279.859 57.954C279.884 57.8679 279.909 57.8063 279.909 57.7448V57.5848C279.909 57.511 279.872 57.4371 279.798 57.3387C279.724 57.2525 279.576 57.1541 279.367 57.0556C279.158 56.9571 278.85 56.871 278.456 56.7848C277.964 56.6864 277.533 56.5879 277.139 56.4772C276.745 56.3664 276.425 56.231 276.167 56.071C275.908 55.8987 275.711 55.7018 275.588 55.4557C275.453 55.2095 275.404 54.9019 275.441 54.508C275.465 54.1634 275.576 53.8435 275.761 53.5604C275.945 53.2773 276.191 53.0189 276.511 52.8096C276.831 52.6004 277.201 52.4281 277.632 52.3174C278.062 52.1943 278.542 52.1328 279.059 52.1328C279.207 52.1328 279.342 52.1328 279.478 52.1451C279.613 52.1451 279.749 52.1697 279.884 52.182V53.7573C279.761 53.7327 279.638 53.7204 279.515 53.7081C279.392 53.7081 279.281 53.6958 279.17 53.6958C278.752 53.6958 278.456 53.7573 278.296 53.8927C278.136 54.028 278.062 54.1757 278.062 54.348C278.062 54.4096 278.075 54.4711 278.112 54.5326C278.136 54.5819 278.21 54.6434 278.308 54.6926C278.419 54.7419 278.567 54.8034 278.764 54.8649C278.961 54.9265 279.244 55.0003 279.601 55.0742V55.0865ZM236.546 60.0216C236.078 60.1324 235.696 60.2062 235.401 60.2308C235.105 60.2554 234.859 60.2678 234.662 60.2678C234.01 60.2678 233.432 60.1693 232.902 59.9724C232.373 59.7755 231.93 59.5047 231.548 59.1478C231.167 58.7909 230.884 58.3725 230.674 57.8802C230.465 57.3879 230.367 56.8464 230.367 56.2556C230.367 55.6649 230.477 55.1726 230.687 54.6803C230.896 54.188 231.191 53.7573 231.573 53.3881C231.954 53.0189 232.398 52.7358 232.927 52.5143C233.456 52.3051 234.035 52.1943 234.675 52.1943C235.413 52.1943 236.053 52.3051 236.583 52.5389C237.112 52.7727 237.543 53.0804 237.887 53.4742C238.22 53.8681 238.478 54.3111 238.638 54.8157C238.798 55.3203 238.884 55.8495 238.884 56.391V56.4156C238.884 56.5264 238.884 56.6125 238.884 56.6864C238.884 56.7602 238.884 56.8464 238.86 56.9448H232.73C232.853 57.4371 233.111 57.8186 233.481 58.0894C233.862 58.3601 234.305 58.5078 234.81 58.5324C234.933 58.5324 235.056 58.5324 235.167 58.5324C235.278 58.5324 235.401 58.5201 235.536 58.5078C235.672 58.4955 235.819 58.4709 235.979 58.434C236.139 58.3971 236.324 58.3478 236.546 58.2863V59.997V60.0216ZM234.699 53.9911C234.158 53.9911 233.727 54.1388 233.382 54.4342C233.05 54.7296 232.816 55.1234 232.718 55.628H236.619C236.546 55.1357 236.336 54.7419 236.004 54.4465C235.672 54.1511 235.241 54.0034 234.687 54.0034L234.699 53.9911ZM122.667 53.8434C123.307 53.9911 123.886 54.1757 124.378 54.3726C124.87 54.5696 125.301 54.8034 125.646 55.0742C125.99 55.3449 126.249 55.6649 126.433 56.0341C126.618 56.4033 126.704 56.8464 126.704 57.3387V57.3756C126.704 57.954 126.593 58.4709 126.36 58.9017C126.126 59.3447 125.806 59.7139 125.387 60.0216C124.969 60.3293 124.476 60.5631 123.91 60.7231C123.344 60.8831 122.716 60.9569 122.027 60.9569C120.094 60.9569 118.371 60.3416 116.87 59.1109L118.519 57.314C118.802 57.5356 119.085 57.7325 119.356 57.8925C119.627 58.0648 119.91 58.2125 120.193 58.3232C120.476 58.4463 120.771 58.5324 121.079 58.6063C121.387 58.6678 121.719 58.7047 122.076 58.7047C122.655 58.7047 123.11 58.6063 123.43 58.4217C123.75 58.2248 123.91 57.9663 123.91 57.6217V57.5848C123.91 57.4248 123.885 57.2771 123.849 57.1541C123.799 57.031 123.701 56.9079 123.541 56.7971C123.381 56.6864 123.147 56.5756 122.839 56.4649C122.532 56.3541 122.113 56.2433 121.572 56.1202C120.931 55.9726 120.353 55.8003 119.836 55.6403C119.319 55.468 118.876 55.2588 118.507 54.988C118.137 54.7296 117.854 54.3973 117.657 54.0157C117.46 53.6342 117.362 53.1419 117.362 52.5635V52.5266C117.362 51.9974 117.473 51.5297 117.694 51.0867C117.916 50.6559 118.224 50.2867 118.617 49.9913C119.011 49.696 119.479 49.4621 120.021 49.2898C120.562 49.1175 121.165 49.0314 121.818 49.0314C122.187 49.0314 122.568 49.0683 122.938 49.1421C123.319 49.216 123.627 49.2898 123.861 49.339V51.7635C123.615 51.6651 123.295 51.5666 122.901 51.4559C122.519 51.3451 122.138 51.2959 121.756 51.2959C121.227 51.2959 120.821 51.3943 120.538 51.5789C120.267 51.7759 120.131 52.0097 120.131 52.2928V52.3297C120.131 52.5266 120.156 52.6866 120.218 52.822C120.267 52.9573 120.39 53.0804 120.562 53.1912C120.735 53.3019 120.993 53.4127 121.325 53.5112C121.658 53.6096 122.101 53.7204 122.642 53.8557L122.667 53.8434Z" fill="white"/>
<path d="M171.938 52.3912H166.978V53.9665H171.938V52.3912Z" fill="white"/>
<path fill-rule="evenodd" clip-rule="evenodd" d="M160.663 54.2741C160.873 54.2495 162.534 54.2495 162.731 54.2741C163.519 54.3726 163.888 54.6803 163.974 55.4802C163.162 55.4187 161.833 55.431 160.947 55.4556C157.057 55.6033 157.303 60.4031 161.328 60.28C162.239 60.2554 163.322 59.9477 163.987 59.1354V60.1939H166.424V55.8987C166.424 52.9204 164.602 52.1327 162.374 52.1327C162.19 52.1327 160.836 52.0958 160.663 52.1204V54.2618V54.2741ZM163.987 56.7602C163.445 56.7109 162.547 56.7109 161.944 56.7355C159.777 56.8094 160.073 59.2831 162.694 58.7416C163.458 58.5816 163.925 57.8924 163.987 57.3386V56.7479V56.7602Z" fill="white"/>
<path fill-rule="evenodd" clip-rule="evenodd" d="M248.866 54.348C249.076 54.3234 250.75 54.3234 250.947 54.348C251.734 54.4465 252.103 54.7541 252.202 55.5541C251.39 55.4926 250.06 55.5049 249.162 55.5295C245.248 55.6772 245.506 60.5016 249.543 60.3785C250.454 60.3539 251.537 60.0462 252.214 59.2339V60.3046H254.664V55.9972C254.664 53.0065 252.83 52.2189 250.59 52.2189C250.405 52.2189 249.039 52.182 248.866 52.2066V54.3603V54.348ZM252.202 56.8464C251.66 56.7971 250.75 56.7971 250.146 56.8217C247.98 56.8956 248.263 59.3816 250.897 58.8401C251.66 58.6801 252.128 57.9909 252.202 57.4371V56.8464Z" fill="white"/>
<path fill-rule="evenodd" clip-rule="evenodd" d="M265.766 54.2618C265.975 54.2372 267.637 54.2372 267.834 54.2618C268.622 54.3603 268.991 54.6679 269.077 55.4679C268.265 55.4064 266.936 55.4187 266.049 55.4433C262.16 55.591 262.406 60.3907 266.431 60.2677C267.342 60.2431 268.425 59.9354 269.09 59.1231V60.1815H271.527V55.8864C271.527 52.908 269.705 52.1204 267.477 52.1204C267.293 52.1204 265.939 52.0835 265.766 52.1081V54.2495V54.2618ZM269.114 56.7971C268.56 56.7478 267.649 56.7479 267.034 56.7725C264.831 56.8463 265.126 59.3692 267.797 58.8154C268.573 58.6554 269.04 57.9539 269.114 57.3878V56.7971Z" fill="white"/>
<path fill-rule="evenodd" clip-rule="evenodd" d="M86.6892 11.3348C81.6181 7.38419 74.5407 3.99973 63.0814 1.87061C60.3612 3.9505 58.4411 5.82119 56.5825 7.69186C67.9556 6.7196 78.6763 6.83037 86.6892 11.3471V11.3348Z" fill="white"/>
<path fill-rule="evenodd" clip-rule="evenodd" d="M46.6863 22.4603C44.5199 27.1124 44.163 32.1337 43.8184 37.4011C47.0924 33.8075 50.3173 30.8291 53.9852 28.1339C51.5235 26.3494 48.9264 24.4048 46.6863 22.4603Z" fill="white"/>
<path fill-rule="evenodd" clip-rule="evenodd" d="M50.9206 13.0946C47.9912 13.8207 44.9879 14.793 41.9231 15.9991C42.6493 17.1436 44.5571 19.1251 46.428 20.6388C47.5358 18.0297 48.902 15.3591 50.9329 13.0946H50.9206Z" fill="white"/>
<path fill-rule="evenodd" clip-rule="evenodd" d="M54.6747 26.7555C65.5308 18.7682 78.0363 14.8915 92.7081 15.0269C80.4734 10.0425 67.3894 8.46718 52.8776 12.3316C50.6252 15.0146 48.8281 18.1898 47.585 21.2912C49.7759 23.1495 52.2745 25.0325 54.6624 26.7432" fill="white"/>
<path fill-rule="evenodd" clip-rule="evenodd" d="M15.2503 36.1458C15.2503 37.8196 15.2134 39.6656 15.2134 41.3394C14.3148 40.1456 7.59437 39.4441 7.18819 42.6563C6.7697 45.9546 14.0194 46.3238 16.235 46.8284C23.9032 48.6006 26.0572 58.5939 15.398 60.7231C9.03447 61.9907 3.87719 60.1077 0 57.2156C1.30471 55.9725 2.62172 54.7172 3.92642 53.4742C6.97894 56.4033 16.7889 58.237 16.2842 53.8188C16.1611 52.6988 15.3118 52.0835 14.2656 51.6774C11.7054 50.6682 8.40673 50.3605 5.82194 49.3513C-2.1663 46.2499 0.701588 37.2781 7.85285 36.1458C10.2038 35.7766 12.8993 35.8751 15.2626 36.1458H15.2503Z" fill="white"/>
<path fill-rule="evenodd" clip-rule="evenodd" d="M43.5969 59.9108H49.7881V48.3914C49.7881 46.1268 51.6344 44.2808 53.8992 44.2808C56.1639 44.2808 58.0102 46.1268 58.0102 48.3914V59.9108H64.2014V49.7451C64.2014 43.0624 59.5611 39.4441 53.8992 39.4441C48.2372 39.4441 43.5969 42.7916 43.5969 49.7451V59.9108Z" fill="white"/>
<path fill-rule="evenodd" clip-rule="evenodd" d="M98.8624 36.8596C99.3547 36.8596 99.8348 36.8842 100.302 36.9212V41.6471C100.302 41.6471 100.216 41.6471 100.179 41.6471C95.5268 41.6471 91.7481 44.8962 91.7481 48.9083C91.7481 52.9204 95.5145 56.1694 100.179 56.1694C100.216 56.1694 100.266 56.1694 100.302 56.1694V60.8954C99.8224 60.9323 99.3424 60.9569 98.8624 60.9569C91.1449 60.9569 84.8799 55.5664 84.8799 48.9206C84.8799 42.2747 91.1449 36.8842 98.8624 36.8842V36.8596Z" fill="white"/>
<path fill-rule="evenodd" clip-rule="evenodd" d="M73.3714 44.5146C73.8022 44.3546 74.2699 44.2685 74.7622 44.2685C76.867 44.2685 78.6148 45.8684 78.8487 47.9114C76.7931 47.7514 73.4206 47.776 71.1558 47.8621C61.2721 48.2437 61.8998 60.44 72.1159 60.12C74.4176 60.0462 77.1624 59.2831 78.8733 57.2155V59.9108H85.0645V49.0067C85.0645 41.4378 80.4242 39.4441 74.7622 39.4441C74.2945 39.4441 73.8268 39.4687 73.3714 39.5179V44.5146ZM78.8733 51.1604C77.4947 51.0251 75.2177 51.0497 73.6668 51.0989C68.1772 51.2835 68.9034 57.5724 75.5746 56.1941C77.4947 55.8002 78.6887 54.028 78.8733 52.6373V51.1481V51.1604Z" fill="white"/>
<path fill-rule="evenodd" clip-rule="evenodd" d="M43.7445 51.6035V49.7451C43.7445 43.5424 39.4611 39.4441 32.9253 39.4441C18.4012 39.4441 18.4012 60.2677 32.9253 60.2677C33.6146 60.2677 34.2915 60.2185 34.9439 60.12V55.6648C31.9283 56.1817 28.3219 54.8033 28.2357 51.6035H43.7445ZM28.2357 48.3667C28.3711 42.4224 37.8979 42.4716 37.9225 48.3667H28.2357Z" fill="white"/>
<g clip-path="url(#clip0_300_501)">
<path d="M886.603 53.3703L867.089 12.2829C866.926 11.8998 866.656 11.5791 866.305 11.3475C865.953 11.1158 865.548 11 865.134 11H849.376C848.988 11 848.601 11.1069 848.268 11.3118C847.934 11.5167 847.673 11.8107 847.511 12.1582L833.879 41.1207C832.014 39.1608 830.348 37.3701 828.519 35.7398C827.33 34.6796 826.005 33.5037 824.735 32.4881C823.618 31.615 822.275 30.5905 821.095 29.7352C820.735 29.468 820.689 29.4234 821.014 29.1651C822.933 27.5971 839.537 14.0112 841.483 12.3987C841.565 12.3363 841.637 12.2562 841.682 12.1671C841.736 12.078 841.763 11.98 841.772 11.8731C841.781 11.7662 841.772 11.6682 841.745 11.5702C841.718 11.4722 841.664 11.3742 841.601 11.294C841.529 11.2049 841.438 11.1426 841.339 11.0891C841.24 11.0356 841.132 11.0089 841.015 11H824.068C823.329 10.9911 822.609 11.2316 822.032 11.686L802.166 27.9089V21.1204C802.148 20.4968 801.941 19.8999 801.589 19.3832C801.229 18.8754 800.733 18.4745 800.157 18.234C799.67 18.0023 799.067 17.7796 798.373 17.5124C793.913 15.8197 789.327 14.4655 784.651 13.4588C776.723 11.7662 768.605 10.9466 760.479 11C747.838 11.1604 738 16.1493 738 24.7374C738 33.3255 747.577 36.2921 760.073 38.261C763.11 38.5371 766.11 39.134 769.02 40.0427C769.263 40.1407 769.47 40.31 769.623 40.5238C769.777 40.7376 769.858 40.9871 769.867 41.2543C769.876 41.5127 769.813 41.771 769.678 42.0027C769.542 42.2254 769.344 42.4125 769.11 42.5283C767.245 43.1786 765.254 43.4192 763.29 43.2143C754.929 43.0272 746.703 41.0851 739.153 37.5126C739.036 37.4503 738.901 37.4235 738.766 37.4235C738.631 37.4235 738.496 37.4681 738.378 37.5394C738.261 37.6106 738.162 37.7086 738.099 37.8244C738.027 37.9403 737.991 38.0739 737.991 38.2075L738.018 48.8268C738.018 49.4504 738.216 50.0562 738.568 50.5729C738.928 51.0896 739.432 51.4816 740.018 51.7133C747.28 54.3325 754.956 55.6599 762.686 55.6331C777.083 55.6331 786.246 50.074 786.246 40.9692C786.246 33.1117 777.984 28.1406 764.596 26.0024C758.893 25.0848 756.208 24.8176 755.073 24.1138C754.857 23.9891 754.686 23.8109 754.569 23.5971C754.451 23.3833 754.388 23.1427 754.397 22.8933C754.397 22.6527 754.478 22.4122 754.614 22.2073C754.749 22.0024 754.929 21.8331 755.154 21.7173C756.731 21.2006 758.407 21.0046 760.055 21.1471C768.497 21.2541 776.84 22.8844 784.687 25.9668C785.886 26.4212 787.066 26.929 788.219 27.508C788.453 27.5793 788.652 27.7308 788.778 27.9357C788.904 28.1406 788.958 28.3811 788.913 28.6216V54.0296C788.913 54.4394 789.084 54.8403 789.372 55.1343C789.67 55.4282 790.066 55.5975 790.481 55.6064H800.562C800.977 55.6064 801.382 55.4461 801.679 55.1521C801.977 54.867 802.148 54.475 802.157 54.0563V44.4526C802.526 44.1497 810.527 37.6284 810.527 37.6284C813.653 39.8913 816.626 42.3501 819.437 44.9871C821.176 46.6353 822.681 48.2388 824.221 49.9761C825.888 51.8647 826.474 52.6487 827.987 54.6799L828.014 54.7155C828.203 54.9828 828.465 55.2055 828.762 55.3659C829.059 55.5173 829.393 55.5975 829.726 55.5975H839.844C840.24 55.5975 840.637 55.4906 840.97 55.2857C841.303 55.0808 841.583 54.7779 841.754 54.4215L844.24 49.1743H870.26L872.738 54.3859C872.909 54.7423 873.179 55.0452 873.512 55.259C873.846 55.4728 874.233 55.5975 874.63 55.6064H885.135C885.342 55.6064 885.549 55.5708 885.747 55.4906C885.937 55.4104 886.117 55.2946 886.261 55.1521C886.405 55.0095 886.522 54.8314 886.603 54.6443C886.684 54.4572 886.729 54.2523 886.729 54.0474C886.729 53.8157 886.675 53.593 886.576 53.3881M864.719 37.477H849.826C852.34 32.1941 854.682 27.2319 857.277 21.7619C860.115 27.7397 862.151 32.0337 864.728 37.477" fill="white"/>
</g>
<defs>
<clipPath id="clip0_300_501">
<rect width="148.747" height="44.6242" fill="white" transform="translate(738 11)"/>
</clipPath>
</defs>
</svg>
