<svg width="457" height="399" viewBox="0 0 457 399" fill="none" xmlns="http://www.w3.org/2000/svg">
<g clip-path="url(#clip0_45_1490)">
<path d="M9.80916 102.222C7.08804 100.549 4.88406 98.3478 3.19721 95.6299C1.51036 92.9121 0.673096 89.8744 0.673096 86.5171V44.0764C0.673096 40.719 1.51036 37.6813 3.19721 34.9635C4.88406 32.2456 7.07573 30.0442 9.80916 28.3717C12.5303 26.6992 15.5715 25.8506 18.9329 25.8506H80.7676V42.0349H19.4747C18.7482 42.0349 18.1326 42.2808 17.6401 42.7851C17.1476 43.2893 16.889 43.9042 16.889 44.6175V85.9636C16.889 86.6892 17.1353 87.3041 17.6401 87.7961C18.1326 88.3003 18.7482 88.5462 19.4747 88.5462H80.8907V104.731H18.9329C15.5715 104.731 12.5303 103.894 9.80916 102.209V102.222Z" fill="white"/>
<path d="M103.78 102.222C101.059 100.549 98.855 98.3478 97.1682 95.6299C95.4813 92.9121 94.644 89.8744 94.644 86.5171V44.0764C94.644 40.719 95.4813 37.6813 97.1682 34.9635C98.855 32.2456 101.047 30.0442 103.78 28.3717C106.501 26.6992 109.542 25.8506 112.904 25.8506H156.614C160.062 25.8506 163.152 26.6869 165.873 28.3717C168.594 30.0565 170.774 32.2456 172.411 34.9635C174.049 37.6813 174.862 40.719 174.862 44.0764V86.5171C174.862 89.8744 174.049 92.9121 172.411 95.6299C170.774 98.3478 168.594 100.549 165.873 102.222C163.152 103.907 160.062 104.743 156.614 104.743H112.904C109.542 104.743 106.501 103.907 103.78 102.222ZM113.458 88.5585H156.085C156.811 88.5585 157.427 88.3126 157.919 87.8084C158.412 87.3041 158.67 86.7015 158.67 85.9759V44.6298C158.67 43.9042 158.424 43.2893 157.919 42.7974C157.414 42.3054 156.799 42.0472 156.085 42.0472H113.458C112.731 42.0472 112.116 42.2931 111.623 42.7974C111.131 43.3016 110.872 43.9165 110.872 44.6298V85.9759C110.872 86.7015 111.119 87.3164 111.623 87.8084C112.116 88.3126 112.731 88.5585 113.458 88.5585Z" fill="white"/>
<path d="M194.143 102.222C191.373 100.549 189.169 98.3478 187.544 95.63C185.906 92.9121 185.094 89.8744 185.094 86.5171V44.0764C185.094 40.719 185.906 37.6814 187.544 34.9635C189.181 32.2456 191.385 30.0442 194.143 28.3717C196.914 26.6992 199.98 25.8506 203.341 25.8506H249.243V0H265.447V104.743H203.341C199.98 104.743 196.914 103.907 194.143 102.222ZM204.018 88.5586H246.645C247.371 88.5586 247.987 88.3126 248.48 87.8084C248.972 87.3041 249.231 86.7015 249.231 85.976V44.6298C249.231 43.9042 248.972 43.2893 248.48 42.7974C247.975 42.3054 247.371 42.0472 246.645 42.0472H204.018C203.292 42.0472 202.676 42.2931 202.184 42.7974C201.691 43.3016 201.433 43.9165 201.433 44.6298V85.976C201.433 86.7015 201.679 87.3164 202.184 87.8084C202.676 88.3126 203.292 88.5586 204.018 88.5586Z" fill="white"/>
<path d="M285.873 102.222C283.152 100.549 280.948 98.3478 279.261 95.6299C277.575 92.9121 276.737 89.8744 276.737 86.5171V44.0764C276.737 40.719 277.575 37.6813 279.261 34.9635C280.948 32.2456 283.14 30.0442 285.873 28.3717C288.594 26.6992 291.636 25.8506 294.997 25.8506H338.707C342.155 25.8506 345.245 26.6869 347.967 28.3717C350.688 30.0565 352.867 32.2456 354.505 34.9635C356.142 37.6813 356.955 40.719 356.955 44.0764V73.4565H292.941V85.9759C292.941 86.7015 293.187 87.3164 293.692 87.8084C294.184 88.3126 294.8 88.5585 295.527 88.5585H356.943V104.743H294.972C291.611 104.743 288.57 103.907 285.849 102.222H285.873ZM292.953 58.625H340.751V44.6175C340.751 43.8919 340.505 43.277 340 42.7851C339.495 42.2931 338.88 42.0349 338.166 42.0349H295.539C294.812 42.0349 294.197 42.2808 293.704 42.7851C293.212 43.2893 292.953 43.9042 292.953 44.6175V58.625Z" fill="white"/>
<path d="M10.0184 249.331C7.24801 247.659 5.04403 245.458 3.41874 242.74C1.78115 240.022 0.968506 236.984 0.968506 233.627V148.34H17.1721V172.96H48.7666V189.145H17.1598V233.086C17.1598 233.811 17.406 234.426 17.9109 234.918C18.4034 235.422 19.019 235.668 19.7455 235.668H48.7543V251.853H19.2037C15.8423 251.853 12.7764 251.016 10.0061 249.331H10.0184Z" fill="white"/>
<path d="M61.6951 251.853V147.11H77.8987V172.96H123.788C127.063 172.96 130.068 173.797 132.85 175.481C135.621 177.166 137.825 179.355 139.45 182.073C141.075 184.791 141.9 187.829 141.9 191.186V251.853H125.697V191.727C125.697 191.002 125.438 190.387 124.946 189.895C124.441 189.403 123.874 189.145 123.247 189.145H80.4843C79.8441 189.145 79.2654 189.391 78.7113 189.895C78.1695 190.399 77.8987 191.014 77.8987 191.727V251.853H61.6951Z" fill="white"/>
<path d="M161.256 249.331C158.535 247.659 156.331 245.458 154.644 242.74C152.957 240.022 152.12 236.984 152.12 233.627V191.186C152.12 187.829 152.957 184.791 154.644 182.073C156.331 179.355 158.523 177.154 161.256 175.481C163.977 173.809 167.018 172.96 170.38 172.96H214.09C217.538 172.96 220.628 173.797 223.349 175.481C226.07 177.166 228.25 179.355 229.887 182.073C231.525 184.791 232.337 187.829 232.337 191.186V220.566H168.323V233.086C168.323 233.811 168.57 234.426 169.075 234.918C169.567 235.422 170.183 235.668 170.909 235.668H232.325V251.853H170.355C166.994 251.853 163.952 251.016 161.231 249.331H161.256ZM168.336 205.735H216.134V191.727C216.134 191.002 215.888 190.387 215.383 189.895C214.878 189.403 214.262 189.145 213.548 189.145H170.921C170.195 189.145 169.579 189.391 169.087 189.895C168.594 190.399 168.336 191.014 168.336 191.727V205.735Z" fill="white"/>
<path d="M1.0918 398.766V312.248C1.0918 308.891 1.90444 305.829 3.54204 303.062C5.17963 300.295 7.38362 298.093 10.1417 296.47C12.912 294.834 15.9779 294.023 19.3393 294.023H48.8899V310.342H19.8811C19.1546 310.342 18.539 310.588 18.0465 311.092C17.5416 311.597 17.2954 312.162 17.2954 312.79V319.861H48.8899V336.045H17.2954V398.753H1.0918V398.766Z" fill="white"/>
<path d="M69.243 396.257C66.4726 394.584 64.2686 392.383 62.6434 389.665C61.0058 386.947 60.1931 383.909 60.1931 380.552V319.886H76.3967V380.011C76.3967 380.737 76.643 381.351 77.1478 381.843C77.6403 382.348 78.2559 382.594 78.9824 382.594H121.609C122.336 382.594 122.951 382.348 123.444 381.843C123.936 381.339 124.195 380.737 124.195 380.011V319.886H140.398V380.552C140.398 383.909 139.586 386.947 137.948 389.665C136.311 392.383 134.131 394.584 131.41 396.257C128.689 397.942 125.598 398.778 122.151 398.778H78.4283C75.0669 398.778 72.001 397.942 69.2307 396.257H69.243Z" fill="white"/>
<path d="M161.182 396.257C158.412 394.584 156.208 392.383 154.583 389.665C152.945 386.947 152.132 383.909 152.132 380.552V295.265H168.336V319.886H199.93V336.07H168.336V380.011C168.336 380.737 168.582 381.351 169.087 381.843C169.58 382.348 170.195 382.594 170.922 382.594H199.93V398.778H170.38C167.018 398.778 163.953 397.942 161.182 396.257Z" fill="white"/>
<path d="M220.013 396.257C217.242 394.584 215.038 392.383 213.413 389.665C211.775 386.947 210.963 383.909 210.963 380.552V319.886H227.166V380.011C227.166 380.737 227.412 381.351 227.917 381.843C228.41 382.348 229.025 382.594 229.752 382.594H272.379C273.105 382.594 273.721 382.348 274.213 381.843C274.706 381.339 274.964 380.737 274.964 380.011V319.886H291.168V380.552C291.168 383.909 290.355 386.947 288.718 389.665C287.08 392.383 284.901 394.584 282.18 396.257C279.459 397.942 276.368 398.778 272.92 398.778H229.198C225.836 398.778 222.771 397.942 220 396.257H220.013Z" fill="white"/>
<path d="M305.463 398.766V338.099C305.463 334.742 306.3 331.704 307.987 328.986C309.662 326.268 311.89 324.067 314.661 322.394C317.431 320.722 320.448 319.873 323.723 319.873H367.716V336.058H324.277C323.551 336.058 322.935 336.304 322.442 336.808C321.95 337.312 321.691 337.927 321.691 338.64V398.766H305.488H305.463Z" fill="white"/>
<path d="M385.828 396.257C383.107 394.584 380.903 392.383 379.216 389.665C377.53 386.947 376.692 383.909 376.692 380.552V338.111C376.692 334.754 377.53 331.716 379.216 328.998C380.903 326.281 383.095 324.079 385.828 322.407C388.55 320.734 391.591 319.886 394.952 319.886H438.662C442.11 319.886 445.201 320.722 447.922 322.407C450.643 324.092 452.822 326.281 454.46 328.998C456.097 331.716 456.91 334.754 456.91 338.111V367.491H392.896V380.011C392.896 380.737 393.142 381.351 393.647 381.843C394.14 382.348 394.755 382.594 395.482 382.594H456.898V398.778H394.928C391.566 398.778 388.525 397.942 385.804 396.257H385.828ZM392.908 352.66H440.706V338.652C440.706 337.927 440.46 337.312 439.955 336.82C439.451 336.328 438.835 336.07 438.121 336.07H395.494C394.767 336.07 394.152 336.316 393.659 336.82C393.167 337.324 392.908 337.939 392.908 338.652V352.66Z" fill="white"/>
<path d="M368.455 104.743V88.5585H456.787V104.743H368.455Z" fill="#84D4EF"/>
<path d="M362.619 163.146H368.64V175.174H362.619V193.215H356.598V211.257H350.577V223.284H344.556V241.325H338.535V259.367H332.514V265.38H326.493V259.367H320.472V247.339H326.493V229.298H332.514V211.257H338.535V199.229H344.556V181.188H350.577V163.146H356.598V157.133H362.619V163.146ZM410.786 205.243V217.27H404.765V223.284H398.744V229.298H392.723V235.312H386.702V241.325H374.661V229.298H380.682V223.284H386.702V217.27H392.723V205.243H386.702V199.229H380.682V193.215H374.661V181.188H386.702V187.202H392.723V193.215H398.744V199.229H404.765V205.243H410.786ZM314.464 181.188V193.215H308.443V199.229H302.422V205.243H296.401V217.27H302.422V223.284H308.443V229.298H314.464V241.325H302.422V235.312H296.401V229.298H290.38V223.284H284.359V217.27H278.338V205.243H284.359V199.229H290.38V193.215H296.401V187.202H302.422V181.188H314.464Z" fill="#ED0180"/>
</g>
<defs>
<clipPath id="clip0_45_1490">
<rect width="456.225" height="398.766" fill="white" transform="translate(0.685303)"/>
</clipPath>
</defs>
</svg>
