<svg width="268" height="65" viewBox="0 0 268 65" fill="none" xmlns="http://www.w3.org/2000/svg">
<path d="M267.913 61.6633L256.269 36.5867C256.174 36.3526 256.008 36.155 255.798 36.016C255.588 35.877 255.349 35.8038 255.096 35.8038H245.688C245.456 35.8038 245.225 35.8696 245.029 35.994C244.834 36.1184 244.675 36.3014 244.573 36.5136L236.439 54.185C235.324 52.9922 234.333 51.9019 233.24 50.8995C232.531 50.2482 231.742 49.5311 230.982 48.9165C230.316 48.3823 229.513 47.7603 228.811 47.2408C228.594 47.0798 228.565 47.0505 228.76 46.8896C229.904 45.931 239.818 37.6404 240.976 36.6599C241.027 36.6233 241.063 36.5721 241.099 36.5136C241.128 36.455 241.15 36.3965 241.157 36.3306C241.157 36.2648 241.157 36.2062 241.143 36.1404C241.128 36.0818 241.092 36.0233 241.056 35.9721C241.013 35.9209 240.962 35.877 240.904 35.8477C240.846 35.8184 240.781 35.7965 240.716 35.7965H230.598C230.157 35.7965 229.73 35.9355 229.382 36.2136L217.528 46.1139V41.9723C217.513 41.5918 217.398 41.2259 217.181 40.9113C216.971 40.5966 216.674 40.3552 216.327 40.2088C216.037 40.0698 215.675 39.9308 215.263 39.7698C212.599 38.738 209.864 37.9112 207.077 37.2965C202.33 36.2648 197.488 35.7599 192.639 35.7965C185.098 35.8916 179.222 38.9283 179.222 44.1748C179.222 49.4214 184.939 51.2288 192.4 52.4288C194.217 52.5971 196.005 52.963 197.742 53.5191C197.886 53.5776 198.009 53.6801 198.103 53.8118C198.19 53.9435 198.248 54.0972 198.248 54.2581C198.248 54.4191 198.212 54.5728 198.14 54.7118C198.06 54.8508 197.944 54.9606 197.799 55.0338C196.685 55.4362 195.498 55.5753 194.326 55.4509C189.332 55.3338 184.425 54.1484 179.916 51.9751C179.844 51.9385 179.764 51.9166 179.685 51.9239C179.605 51.9239 179.526 51.9532 179.453 51.9898C179.381 52.0337 179.323 52.0922 179.287 52.1654C179.243 52.2385 179.222 52.319 179.222 52.3995L179.236 58.8827C179.236 59.2632 179.352 59.6364 179.569 59.951C179.779 60.2657 180.083 60.5071 180.43 60.6462C184.765 62.2414 189.346 63.0536 193.956 63.0389C202.547 63.0389 208.018 59.6437 208.018 54.0898C208.018 49.297 203.09 46.2603 195.093 44.9578C191.684 44.4017 190.085 44.2407 189.412 43.8016C189.281 43.7285 189.18 43.6187 189.108 43.487C189.035 43.3553 188.999 43.2089 189.006 43.0553C189.006 42.9089 189.057 42.7626 189.136 42.6309C189.216 42.5065 189.325 42.404 189.455 42.3309C190.396 42.0162 191.394 41.8991 192.386 41.9796C197.423 42.0455 202.402 43.0406 207.085 44.9212C207.801 45.1993 208.503 45.5139 209.191 45.8578C209.328 45.9017 209.451 45.9968 209.524 46.1212C209.603 46.2456 209.632 46.392 209.61 46.5383V62.0438C209.61 62.2999 209.712 62.5414 209.885 62.717C210.059 62.8999 210.298 63.0024 210.551 63.0024H216.565C216.811 63.0024 217.05 62.8999 217.231 62.7243C217.412 62.5487 217.513 62.3072 217.521 62.0584V56.1972C217.745 56.0143 222.514 52.0337 222.514 52.0337C224.382 53.4166 226.155 54.9167 227.834 56.5265C228.869 57.5363 229.773 58.5095 230.685 59.5705C231.677 60.7267 232.031 61.2023 232.929 62.4389L232.943 62.4609C233.059 62.6292 233.211 62.7609 233.392 62.856C233.573 62.9511 233.768 63.0024 233.971 63.0024H240.007C240.245 63.0024 240.477 62.9365 240.68 62.8121C240.882 62.6877 241.042 62.5048 241.15 62.2853L242.634 59.0803H258.165L259.648 62.256C259.75 62.4755 259.909 62.6584 260.112 62.7902C260.314 62.9219 260.538 62.995 260.777 63.0024H267.052C267.175 63.0024 267.298 62.9804 267.414 62.9292C267.53 62.878 267.631 62.8121 267.725 62.7243C267.812 62.6365 267.884 62.5267 267.935 62.417C267.986 62.2999 268.007 62.1755 268.007 62.0511C268.007 61.9121 267.978 61.773 267.92 61.6487M254.85 51.9605H245.963C247.461 48.7335 248.865 45.7115 250.414 42.3674C252.107 46.0115 253.323 48.6384 254.865 51.9605" fill="white"/>
<path fill-rule="evenodd" clip-rule="evenodd" d="M90.2622 9.96623C84.979 5.80266 77.6116 2.24643 65.6847 0C62.8478 2.18789 60.8575 4.16357 58.918 6.12462C70.758 5.10751 81.9177 5.20995 90.2694 9.96623H90.2622Z" fill="white"/>
<path fill-rule="evenodd" clip-rule="evenodd" d="M49.0464 20.9496C46.7957 25.8522 46.4194 31.1426 46.0575 36.6819C49.459 32.8988 52.8315 29.767 56.6455 26.9205C54.0835 25.04 51.3841 22.9911 49.0464 20.9422V20.9496Z" fill="white"/>
<path fill-rule="evenodd" clip-rule="evenodd" d="M54.6987 11.0858C51.2176 12.0444 47.6569 13.3029 44.0166 14.8835C44.8851 16.3762 46.8319 18.9739 49.0392 20.9496C50.3564 17.5324 52.2815 14.042 54.6914 11.0858H54.6987Z" fill="white"/>
<path fill-rule="evenodd" clip-rule="evenodd" d="M57.6514 26.1961C68.9487 17.7812 81.9683 13.7054 97.2533 13.8517C84.5158 8.6052 70.8955 6.94416 55.7842 11.0199C53.4394 13.8517 51.565 17.1884 50.2767 20.4593C52.5564 22.4204 55.1546 24.4034 57.6514 26.1961Z" fill="white"/>
<path fill-rule="evenodd" clip-rule="evenodd" d="M15.8856 36.0892C15.8856 37.8526 15.8495 39.7991 15.8495 41.5552C14.9086 40.2966 7.92475 39.5649 7.49052 42.9455C7.04905 46.4213 14.6047 46.8018 16.9061 47.3359C24.8815 49.2018 27.1322 59.7242 16.0304 61.9633C9.40837 63.3024 4.03114 61.3194 -0.00720215 58.2754C1.35339 56.9655 2.72121 55.6484 4.0818 54.3313C7.25893 57.4119 17.4778 59.3364 16.9495 54.6899C16.8192 53.5044 15.9435 52.8605 14.8507 52.4288C12.1802 51.3751 8.74979 51.0385 6.05755 49.9848C-2.2652 46.7139 0.730991 37.2746 8.17081 36.0892C10.617 35.694 13.4322 35.8038 15.8784 36.0892H15.8856Z" fill="white"/>
<path fill-rule="evenodd" clip-rule="evenodd" d="M45.3916 61.0999H51.8327V48.9677C51.8327 46.5822 53.7578 44.6358 56.1171 44.6358C58.4764 44.6358 60.4015 46.5822 60.4015 48.9677V61.0999H66.8426V50.4019C66.8426 43.3626 62.0154 39.5576 56.1171 39.5576C50.2188 39.5576 45.3916 43.0772 45.3916 50.4019V61.0999Z" fill="white"/>
<path fill-rule="evenodd" clip-rule="evenodd" d="M102.927 36.8355C103.434 36.8355 103.933 36.8575 104.425 36.9014V41.8699C104.382 41.8699 104.339 41.8699 104.295 41.8699C99.4462 41.8699 95.5236 45.2944 95.5236 49.5092C95.5236 53.724 99.4534 57.1485 104.295 57.1485C104.339 57.1485 104.382 57.1485 104.425 57.1485V62.117C103.933 62.1609 103.434 62.1828 102.927 62.1828C94.8868 62.1828 88.3733 56.5046 88.3733 49.5019C88.3733 42.4992 94.894 36.8209 102.927 36.8209V36.8355Z" fill="white"/>
<path fill-rule="evenodd" clip-rule="evenodd" d="M76.3957 44.8992C76.8517 44.7309 77.3365 44.6431 77.8432 44.6431C80.036 44.6431 81.8526 46.3261 82.0986 48.4774C79.9564 48.3091 76.4464 48.3311 74.0943 48.4189C63.803 48.8213 64.4616 61.6633 75.093 61.3194C77.4958 61.2462 80.3545 60.434 82.1276 58.2607V61.0999H88.5687V49.6189C88.5687 41.6503 83.7415 39.5576 77.8432 39.5576C77.351 39.5576 76.8661 39.5795 76.3957 39.6308V44.8919V44.8992ZM82.1276 51.8946C80.6946 51.7556 78.3208 51.7776 76.7069 51.8288C70.9895 52.019 71.7494 58.6412 78.6971 57.1997C80.7018 56.7826 81.9394 54.924 82.1276 53.4532V51.8873V51.8946Z" fill="white"/>
<path fill-rule="evenodd" clip-rule="evenodd" d="M45.5508 52.3556V50.4019C45.5508 43.8748 41.0855 39.5576 34.2825 39.5576C19.1568 39.5576 19.1568 61.4804 34.2825 61.4804C34.999 61.4804 35.7082 61.4291 36.3885 61.3267V56.6363C33.2476 57.1851 29.4915 55.7289 29.4047 52.3556H45.558H45.5508ZM29.3974 48.9457C29.5349 42.6821 39.4571 42.7479 39.486 48.9457H29.3974Z" fill="white"/>
<path d="M157.163 48.0091V50.8409H155.759V52.2605H144.548V63.5951H143.144V65.0146H140.343V63.5951H138.939V52.2605H127.729V50.8409H126.325V48.0091H127.729V46.5895H138.939V35.255H140.343V33.8354H143.144V35.255H144.548V46.5895H155.759V48.0091H157.163Z" fill="#F7941D"/>
</svg>
