<svg width="47" height="47" viewBox="0 0 47 47" fill="none" xmlns="http://www.w3.org/2000/svg">
<path d="M23.5 1.95837H27.4166V17.625H43.0833V25.4584H39.1666V21.5417H23.5V9.79171H19.5833V5.87504H23.5V1.95837ZM15.6666 13.7084V9.79171H19.5833V13.7084H15.6666ZM11.75 17.625V13.7084H15.6666V17.625H11.75ZM7.83329 21.5417V17.625H11.75V21.5417H7.83329ZM27.4166 37.2084V41.125H23.5V45.0417H19.5833V29.375H3.91663V21.5417H7.83329V25.4584H23.5V37.2084H27.4166ZM31.3333 33.2917V37.2084H27.4166V33.2917H31.3333ZM35.25 29.375V33.2917H31.3333V29.375H35.25ZM35.25 29.375H39.1666V25.4584H35.25V29.375Z" fill="#F7941D"/>
</svg>
