<svg width="80" height="80" viewBox="0 0 80 80" fill="none" xmlns="http://www.w3.org/2000/svg">
<path d="M40.0001 3.33325H46.6667V29.9999H73.3334V43.3333H66.6667V36.6666H40.0001V16.6666H33.3334V9.99992H40.0001V3.33325ZM26.6667 23.3333V16.6666H33.3334V23.3333H26.6667ZM20.0001 29.9999V23.3333H26.6667V29.9999H20.0001ZM13.3334 36.6666V29.9999H20.0001V36.6666H13.3334ZM46.6667 63.3333V69.9999H40.0001V76.6666H33.3334V49.9999H6.66675V36.6666H13.3334V43.3333H40.0001V63.3333H46.6667ZM53.3334 56.6666V63.3333H46.6667V56.6666H53.3334ZM60.0001 49.9999V56.6666H53.3334V49.9999H60.0001ZM60.0001 49.9999H66.6667V43.3333H60.0001V49.9999Z" fill="#F7941D"/>
</svg>
