<svg width="80" height="80" viewBox="0 0 80 80" fill="none" xmlns="http://www.w3.org/2000/svg">
<path d="M29.9999 6.66675H16.6666V13.3334H9.99992V20.0001H3.33325V40.0001H9.99992V46.6667H16.6666V53.3334H23.3333V60.0001H29.9999V66.6667H36.6666V73.3334H43.3333V66.6667H49.9999V60.0001H56.6666V53.3334H63.3333V46.6667H69.9999V40.0001H76.6666V20.0001H69.9999V13.3334H63.3333V6.66675H49.9999V13.3334H43.3333V20.0001H36.6666V13.3334H29.9999V6.66675ZM29.9999 13.3334V20.0001H36.6666V26.6667H43.3333V20.0001H49.9999V13.3334H63.3333V20.0001H69.9999V40.0001H63.3333V46.6667H56.6666V53.3334H49.9999V60.0001H43.3333V66.6667H36.6666V60.0001H29.9999V53.3334H23.3333V46.6667H16.6666V40.0001H9.99992V20.0001H16.6666V13.3334H29.9999Z" fill="#F7941D"/>
</svg>
