<svg width="80" height="80" viewBox="0 0 80 80" fill="none" xmlns="http://www.w3.org/2000/svg">
<path d="M49.9999 13.3333H53.3333V20H49.9999V30H46.6666V40H43.3333V46.6667H39.9999V56.6667H36.6666V66.6667H33.3333V70H29.9999V66.6667H26.6666V60H29.9999V50H33.3333V40H36.6666V33.3333H39.9999V23.3333H43.3333V13.3333H46.6666V10H49.9999V13.3333ZM76.6666 36.6667V43.3333H73.3333V46.6667H69.9999V50H66.6666V53.3333H63.3333V56.6667H56.6666V50H59.9999V46.6667H63.3333V43.3333H66.6666V36.6667H63.3333V33.3333H59.9999V30H56.6666V23.3333H63.3333V26.6667H66.6666V30H69.9999V33.3333H73.3333V36.6667H76.6666ZM23.3333 23.3333V30H19.9999V33.3333H16.6666V36.6667H13.3333V43.3333H16.6666V46.6667H19.9999V50H23.3333V56.6667H16.6666V53.3333H13.3333V50H9.99992V46.6667H6.66659V43.3333H3.33325V36.6667H6.66659V33.3333H9.99992V30H13.3333V26.6667H16.6666V23.3333H23.3333Z" fill="#F7941D"/>
</svg>
