<svg width="47" height="47" viewBox="0 0 47 47" fill="none" xmlns="http://www.w3.org/2000/svg">
<path d="M29.375 7.83333H31.3334V11.75H29.375V17.625H27.4167V23.5H25.4584V27.4167H23.5V33.2917H21.5417V39.1667H19.5834V41.125H17.625V39.1667H15.6667V35.25H17.625V29.375H19.5834V23.5H21.5417V19.5833H23.5V13.7083H25.4584V7.83333H27.4167V5.875H29.375V7.83333ZM45.0417 21.5417V25.4583H43.0834V27.4167H41.125V29.375H39.1667V31.3333H37.2084V33.2917H33.2917V29.375H35.25V27.4167H37.2084V25.4583H39.1667V21.5417H37.2084V19.5833H35.25V17.625H33.2917V13.7083H37.2084V15.6667H39.1667V17.625H41.125V19.5833H43.0834V21.5417H45.0417ZM13.7084 13.7083V17.625H11.75V19.5833H9.79171V21.5417H7.83337V25.4583H9.79171V27.4167H11.75V29.375H13.7084V33.2917H9.79171V31.3333H7.83337V29.375H5.87504V27.4167H3.91671V25.4583H1.95837V21.5417H3.91671V19.5833H5.87504V17.625H7.83337V15.6667H9.79171V13.7083H13.7084Z" fill="#F7941D"/>
</svg>
