
<!-- Generator: visioncortex VTracer 0.6.4 -->
<svg version="1.1" xmlns="http://www.w3.org/2000/svg" viewBox="0 0 510 112" preserveAspectRatio="xMidYMid meet">
<path d="M0 0 C2.565 2.565 2.54 4.477 3 8 C3.964 7.169 4.928 6.337 5.922 5.48 C7.198 4.383 8.474 3.285 9.75 2.188 C10.701 1.367 10.701 1.367 11.672 0.529 C12.906 -0.531 14.147 -1.584 15.396 -2.628 C17.086 -4.034 17.086 -4.034 18.844 -5.875 C22.58 -7.824 26.617 -7.307 30.75 -7.188 C31.638 -7.174 32.526 -7.16 33.441 -7.146 C35.628 -7.111 37.814 -7.062 40 -7 C38.719 -4.13 37.483 -2.277 35.066 -0.273 C34.5 0.201 33.933 0.675 33.35 1.164 C32.76 1.646 32.17 2.128 31.562 2.625 C30.684 3.36 30.684 3.36 29.787 4.109 C27.259 6.21 24.737 8.175 22 10 C23.448 13.444 25.277 15.361 28.125 17.75 C29.212 18.67 29.212 18.67 30.32 19.609 C30.875 20.068 31.429 20.527 32 21 C32.762 19.476 32.762 19.476 33.539 17.922 C37.693 9.615 41.846 1.307 46 -7 C48.733 -7.217 51.45 -7.375 54.188 -7.5 C54.956 -7.567 55.725 -7.634 56.518 -7.703 C62.029 -7.892 62.029 -7.892 64.431 -5.685 C65.85 -3.529 66.92 -1.346 68 1 C68.775 2.593 68.775 2.593 69.565 4.219 C71.315 7.877 73.008 11.558 74.688 15.25 C75.56 17.153 76.433 19.055 77.307 20.957 C78.093 22.671 78.876 24.387 79.659 26.103 C80.448 27.806 81.273 29.495 82.179 31.14 C83 33 83 33 83 37 C80.898 37.135 78.793 37.232 76.688 37.312 C75.516 37.371 74.344 37.429 73.137 37.488 C72.102 37.327 71.066 37.166 70 37 C69.559 36.18 69.118 35.359 68.664 34.514 C67.237 31.744 67.237 31.744 64.365 31.341 C63.333 31.325 62.301 31.309 61.238 31.293 C60.12 31.264 59.002 31.235 57.85 31.205 C56.099 31.196 56.099 31.196 54.312 31.188 C52.544 31.15 52.544 31.15 50.74 31.111 C47.826 31.052 44.914 31.016 42 31 C41.01 33.97 41.01 33.97 40 37 C35.426 37.863 31.555 38.055 27 37 C22.665 33.922 19.511 29.599 16.236 25.469 C14.671 23.609 13.111 22.209 11 21 C7.514 21.85 5.209 23.189 3 26 C2.422 28.732 2.422 28.732 2.312 31.688 C2.209 33.441 2.106 35.194 2 37 C-2.29 37 -6.58 37 -11 37 C-11.33 28.09 -11.66 19.18 -12 10 C-22.285 6.501 -22.285 6.501 -32.5 4.75 C-33.175 4.673 -33.851 4.595 -34.547 4.516 C-37.727 4.165 -40.796 4 -44 4 C-44 4.66 -44 5.32 -44 6 C-42.675 6.147 -42.675 6.147 -41.324 6.297 C-32.161 7.439 -23.502 8.758 -15.875 14.25 C-13.427 17.841 -12.596 20.662 -13 25 C-14.348 29.351 -16.615 32.047 -20.5 34.375 C-31.638 39.546 -45.404 37.904 -56.691 33.973 C-59 33 -59 33 -60 32 C-60.073 29.814 -60.084 27.625 -60.062 25.438 C-60.053 24.24 -60.044 23.042 -60.035 21.809 C-60.024 20.882 -60.012 19.955 -60 19 C-56.599 19.63 -53.365 20.482 -50.062 21.5 C-43.447 23.353 -36.838 23.711 -30 24 C-30.33 23.34 -30.66 22.68 -31 22 C-32.829 21.394 -32.829 21.394 -35.043 21.035 C-35.87 20.875 -36.697 20.714 -37.549 20.549 C-39.288 20.228 -41.028 19.908 -42.768 19.588 C-55.533 17.11 -55.533 17.11 -59 12 C-60.02 8.14 -60.214 5.712 -59.062 1.875 C-55.953 -2.46 -51.895 -5.209 -46.727 -6.621 C-31.774 -8.699 -13.427 -7.257 0 0 Z M54 5 C53.16 6.768 52.328 8.539 51.5 10.312 C51.036 11.299 50.572 12.285 50.094 13.301 C48.812 15.978 48.812 15.978 49 19 C52.96 19 56.92 19 61 19 C60.25 15.249 59.709 13.005 58.062 9.75 C57.723 9.064 57.384 8.378 57.035 7.672 C56.097 5.83 56.097 5.83 54 5 Z " fill="#FEFEFE" transform="translate(410,49)"/>
<path d="M0 0 C0 1.65 0 3.3 0 5 C-2.31 5.33 -4.62 5.66 -7 6 C-7 6.99 -7 7.98 -7 9 C-6.301 9.133 -5.603 9.266 -4.883 9.402 C-3.973 9.579 -3.063 9.756 -2.125 9.938 C-1.22 10.112 -0.315 10.286 0.617 10.465 C3 11 3 11 5 12 C5.619 11.051 6.237 10.102 6.875 9.125 C10.249 4.163 10.249 4.163 14.75 3.188 C18.941 2.754 21.43 3.676 25 6 C26.875 7.688 26.875 7.688 28 9 C28.227 8.381 28.454 7.763 28.688 7.125 C30.463 4.251 31.735 3.798 35 3 C38.885 3.136 41.189 3.386 44.312 5.75 C46.07 8.093 47.077 10.23 48 13 C48.887 12.691 49.774 12.381 50.688 12.062 C53.467 11.171 56.131 10.506 59 10 C57.68 9.34 56.36 8.68 55 8 C55.33 6.35 55.66 4.7 56 3 C62.4 3.492 62.4 3.492 65.438 6.062 C66.211 7.022 66.211 7.022 67 8 C67.578 7.216 68.155 6.433 68.75 5.625 C70.917 3.096 71.888 1.978 75 1 C77.332 0.922 79.668 0.91 82 1 C81.875 3.312 81.875 3.312 81 6 C79 7 77 8 75 9 C73.756 11.386 73.756 11.386 74 14 C75.885 17.666 78.158 18.754 82 20 C82 21.32 82 22.64 82 24 C75.011 24.603 75.011 24.603 72.133 22.887 C70.691 21.663 69.337 20.337 68 19 C67.34 20.65 66.68 22.3 66 24 C61.25 24.125 61.25 24.125 59 23 C58.34 23.33 57.68 23.66 57 24 C52.949 24.259 51.457 24.304 48 22 C47.34 22.66 46.68 23.32 46 24 C43.375 24.125 43.375 24.125 41 24 C40.939 23.157 40.879 22.314 40.816 21.445 C40.733 20.35 40.649 19.254 40.562 18.125 C40.481 17.034 40.4 15.944 40.316 14.82 C40.17 12.053 40.17 12.053 39 10 C37.35 10.33 35.7 10.66 34 11 C33.909 12.282 33.909 12.282 33.816 13.59 C33.733 14.695 33.649 15.799 33.562 16.938 C33.481 18.04 33.4 19.142 33.316 20.277 C33 23 33 23 32 24 C30.334 24.041 28.666 24.043 27 24 C26.505 20.04 26.505 20.04 26 16 C22.04 16 18.08 16 14 16 C13.67 16.66 13.34 17.32 13 18 C14.98 18.33 16.96 18.66 19 19 C19 20.65 19 22.3 19 24 C13.706 24.504 11.186 23.189 7 20 C6.546 20.639 6.093 21.279 5.625 21.938 C1.725 25.002 -2.118 25.224 -7 25 C-9.619 24.267 -11.59 23.31 -14 22 C-14 21.01 -14 20.02 -14 19 C-11.659 17.55 -10.42 16.957 -7.641 17.242 C-6.457 17.555 -6.457 17.555 -5.25 17.875 C-4.451 18.079 -3.652 18.282 -2.828 18.492 C-2.225 18.66 -1.622 18.827 -1 19 C-0.67 18.34 -0.34 17.68 0 17 C-1.139 16.619 -1.139 16.619 -2.301 16.23 C-3.295 15.886 -4.289 15.542 -5.312 15.188 C-6.299 14.851 -7.285 14.515 -8.301 14.168 C-10.909 13.039 -12.348 12.291 -14 10 C-13.935 6.375 -13.751 3.97 -11.5 1.062 C-7.717 -0.545 -4.053 -0.234 0 0 Z M15 8 C13.515 9.98 13.515 9.98 12 12 C14.97 12 17.94 12 21 12 C20.67 11.01 20.34 10.02 20 9 C18.35 8.67 16.7 8.34 15 8 Z M54 15 C53.01 16.485 53.01 16.485 52 18 C54.266 19.29 54.266 19.29 57 20 C59.365 18.873 59.365 18.873 61 17 C61 16.34 61 15.68 61 15 C57.584 14.75 57.584 14.75 54 15 Z " fill="#FEFEFE" transform="translate(34,67)"/>
<path d="M0 0 C2.339 0.287 4.674 0.619 7 1 C7 1.66 7 2.32 7 3 C7.626 3 8.251 3 8.896 3 C15.931 3 22.965 3 30 3 C31.257 2.965 32.514 2.93 33.809 2.895 C35.352 2.867 36.895 2.839 38.438 2.812 C39.214 2.787 39.991 2.762 40.791 2.736 C46.61 2.661 46.61 2.661 48.746 4.518 C49.16 5.007 49.574 5.496 50 6 C50.33 5.01 50.66 4.02 51 3 C52.093 3.021 53.186 3.041 54.312 3.062 C57.944 3.185 57.944 3.185 61 2 C61.66 2.33 62.32 2.66 63 3 C63 2.01 63 1.02 63 0 C63.99 0.33 64.98 0.66 66 1 C66 2.65 66 4.3 66 6 C66.66 6 67.32 6 68 6 C68 4.68 68 3.36 68 2 C69.98 2 71.96 2 74 2 C74.33 1.34 74.66 0.68 75 0 C75.66 0 76.32 0 77 0 C77 0.99 77 1.98 77 3 C78.32 2.67 79.64 2.34 81 2 C82.562 3.687 82.562 3.687 84 6 C83.59 8.645 83.59 8.645 83 11 C39.111 11 39.111 11 34 10 C33.505 9.505 33.505 9.505 33 9 C32.67 9.66 32.34 10.32 32 11 C29.36 11 26.72 11 24 11 C24 11.66 24 12.32 24 13 C21.614 12.424 19.333 11.778 17 11 C17 9.02 17 7.04 17 5 C16.34 5 15.68 5 15 5 C15 6.98 15 8.96 15 11 C14.01 11 13.02 11 12 11 C11.67 9.35 11.34 7.7 11 6 C10.67 7.65 10.34 9.3 10 11 C6.37 11 2.74 11 -1 11 C-1.098 3.285 -1.098 3.285 -1 1 C-0.67 0.67 -0.34 0.34 0 0 Z M2 3 C3.32 3.33 4.64 3.66 6 4 C6 4.99 6 5.98 6 7 C4.68 7.33 3.36 7.66 2 8 C3.65 8 5.3 8 7 8 C7 6.35 7 4.7 7 3 C5.35 3 3.7 3 2 3 Z M20 5 C20 6.65 20 8.3 20 10 C20.33 10 20.66 10 21 10 C21 8.35 21 6.7 21 5 C20.67 5 20.34 5 20 5 Z M25 5 C25 6.32 25 7.64 25 9 C25.33 7.68 25.66 6.36 26 5 C25.67 5 25.34 5 25 5 Z M74 5 C75 9 75 9 75 9 Z " fill="#FCFDFD" transform="translate(206,80)"/>
<path d="M0 0 C1.134 0.021 2.269 0.041 3.438 0.062 C3.768 1.053 4.097 2.042 4.438 3.062 C2.787 3.392 1.137 3.722 -0.562 4.062 C1.104 4.105 2.771 4.103 4.438 4.062 C4.768 3.733 5.097 3.403 5.438 3.062 C7.104 3.017 8.771 3.024 10.438 3.062 C12.595 3.062 14.753 3.058 16.91 3.027 C17.765 3.018 18.619 3.009 19.5 3 C20.357 2.988 21.214 2.977 22.098 2.965 C24.438 3.062 24.438 3.062 27.438 4.062 C28.51 3.898 29.583 3.733 30.688 3.562 C34.552 3.047 37.611 3.462 41.438 4.062 C42.097 3.733 42.757 3.403 43.438 3.062 C43.767 2.072 44.097 1.083 44.438 0.062 C45.428 0.062 46.417 0.062 47.438 0.062 C48.097 1.383 48.757 2.703 49.438 4.062 C51.015 3.815 51.015 3.815 52.625 3.562 C55.642 3.167 58.408 2.971 61.438 3.062 C61.438 2.072 61.438 1.083 61.438 0.062 C62.428 0.392 63.418 0.722 64.438 1.062 C64.933 2.547 64.933 2.547 65.438 4.062 C65.767 3.733 66.097 3.403 66.438 3.062 C68.875 2.812 68.875 2.812 71.438 3.062 C73.438 6.063 73.438 6.063 73.062 8.75 C72.856 9.513 72.65 10.276 72.438 11.062 C60.771 11.062 49.104 11.062 37.438 11.062 C37.438 9.413 37.438 7.763 37.438 6.062 C36.778 6.062 36.118 6.062 35.438 6.062 C35.438 7.712 35.438 9.362 35.438 11.062 C34.447 11.062 33.458 11.062 32.438 11.062 C32.438 9.413 32.438 7.763 32.438 6.062 C31.778 6.062 31.118 6.062 30.438 6.062 C30.438 7.712 30.438 9.362 30.438 11.062 C24.827 11.062 19.218 11.062 13.438 11.062 C13.108 10.072 12.778 9.082 12.438 8.062 C11.778 8.062 11.118 8.062 10.438 8.062 C10.438 9.053 10.438 10.043 10.438 11.062 C8.458 11.062 6.477 11.062 4.438 11.062 C4.107 9.742 3.778 8.422 3.438 7.062 C1.787 7.062 0.137 7.062 -1.562 7.062 C-1.562 8.383 -1.562 9.703 -1.562 11.062 C-2.553 11.062 -3.542 11.062 -4.562 11.062 C-4.589 9.417 -4.609 7.771 -4.625 6.125 C-4.637 5.208 -4.648 4.292 -4.66 3.348 C-4.499 -0.427 -3.926 0.069 0 0 Z M16.438 5.062 C16.438 6.383 16.438 7.703 16.438 9.062 C17.097 9.062 17.757 9.062 18.438 9.062 C18.438 7.742 18.438 6.422 18.438 5.062 C17.778 5.062 17.118 5.062 16.438 5.062 Z M21.438 5.062 C21.438 6.383 21.438 7.703 21.438 9.062 C22.428 8.733 23.417 8.403 24.438 8.062 C24.108 7.072 23.778 6.082 23.438 5.062 C22.778 5.062 22.118 5.062 21.438 5.062 Z M57.438 6.062 C57.767 7.053 58.097 8.043 58.438 9.062 C59.428 9.392 60.418 9.722 61.438 10.062 C61.438 8.413 61.438 6.763 61.438 5.062 C59.363 4.913 59.363 4.913 57.438 6.062 Z M68.438 5.062 C68.438 6.383 68.438 7.703 68.438 9.062 C69.097 9.062 69.757 9.062 70.438 9.062 C70.108 7.742 69.778 6.422 69.438 5.062 C69.108 5.062 68.778 5.062 68.438 5.062 Z " fill="#FDFDFD" transform="translate(136.5625,32.9375)"/>
<path d="M0 0 C1.454 0.031 1.454 0.031 2.938 0.062 C2.607 0.722 2.278 1.382 1.938 2.062 C0.947 2.062 -0.042 2.062 -1.062 2.062 C-1.062 2.722 -1.062 3.382 -1.062 4.062 C0.588 3.733 2.238 3.403 3.938 3.062 C3.938 2.073 3.938 1.082 3.938 0.062 C4.928 0.062 5.917 0.062 6.938 0.062 C6.938 1.382 6.938 2.703 6.938 4.062 C7.597 3.733 8.257 3.403 8.938 3.062 C10.937 3.021 12.938 3.021 14.938 3.062 C15.597 3.062 16.257 3.062 16.938 3.062 C18.604 3.062 20.271 3.062 21.938 3.062 C21.938 2.073 21.938 1.082 21.938 0.062 C24.248 0.062 26.558 0.062 28.938 0.062 C29.433 1.547 29.433 1.547 29.938 3.062 C31.257 2.733 32.577 2.403 33.938 2.062 C34.433 3.547 34.433 3.547 34.938 5.062 C33.947 5.722 32.958 6.382 31.938 7.062 C32.597 7.392 33.257 7.722 33.938 8.062 C36.185 6.01 36.94 5.056 37.938 2.062 C38.494 2.248 39.051 2.434 39.625 2.625 C41.918 3.22 41.918 3.22 44.094 2.562 C47.705 1.927 51.123 2.198 54.75 2.5 C55.789 2.578 55.789 2.578 56.85 2.658 C58.546 2.787 60.242 2.924 61.938 3.062 C62.668 5.04 63.332 7.043 63.938 9.062 C63.608 9.722 63.278 10.382 62.938 11.062 C40.604 11.062 18.271 11.062 -4.062 11.062 C-4.062 10.073 -4.062 9.082 -4.062 8.062 C-2.412 8.392 -0.762 8.722 0.938 9.062 C0.938 8.403 0.938 7.743 0.938 7.062 C-0.713 6.733 -2.363 6.403 -4.062 6.062 C-4.105 4.396 -4.103 2.729 -4.062 1.062 C-3.062 0.062 -3.062 0.062 0 0 Z M24.938 2.062 C24.938 4.043 24.938 6.022 24.938 8.062 C25.267 8.062 25.597 8.062 25.938 8.062 C26.267 6.082 26.597 4.103 26.938 2.062 C26.278 2.062 25.618 2.062 24.938 2.062 Z M19.938 5.062 C19.938 6.382 19.938 7.703 19.938 9.062 C20.597 8.733 21.257 8.403 21.938 8.062 C21.608 7.073 21.278 6.082 20.938 5.062 C20.608 5.062 20.278 5.062 19.938 5.062 Z M46.938 5.062 C46.938 6.382 46.938 7.703 46.938 9.062 C47.267 7.743 47.597 6.422 47.938 5.062 C47.608 5.062 47.278 5.062 46.938 5.062 Z M50.938 5.062 C51.267 6.382 51.597 7.703 51.938 9.062 C52.597 8.733 53.257 8.403 53.938 8.062 C53.608 7.073 53.278 6.082 52.938 5.062 C52.278 5.062 51.618 5.062 50.938 5.062 Z M14.938 6.062 C15.938 8.062 15.938 8.062 15.938 8.062 Z " fill="#FCFDFD" transform="translate(136.0625,79.9375)"/>
<path d="M0 0 C0.66 0.66 1.32 1.32 2 2 C-0.745 3.372 -3.324 3.413 -6.375 3.75 C-19.93 5.637 -31.361 11.6 -40.59 21.68 C-42 23 -42 23 -44 23 C-43.858 21.25 -43.711 19.5 -43.562 17.75 C-43.481 16.775 -43.4 15.801 -43.316 14.797 C-43 12 -43 12 -42.344 9.812 C-42.23 9.214 -42.117 8.616 -42 8 C-43.852 5.247 -43.852 5.247 -46 3 C-31.593 -4.204 -15.207 -4.948 0 0 Z " fill="#FEFEFE" transform="translate(105,45)"/>
<path d="M0 0 C4.479 -0.029 8.958 -0.047 13.438 -0.062 C14.717 -0.071 15.996 -0.079 17.314 -0.088 C19.137 -0.093 19.137 -0.093 20.996 -0.098 C22.122 -0.103 23.248 -0.108 24.408 -0.114 C27 0 27 0 28 1 C28.041 2.666 28.043 4.334 28 6 C26.35 6.33 24.7 6.66 23 7 C23 7.99 23 8.98 23 10 C18.684 10.762 15.256 11.161 11 10 C11 8.68 11 7.36 11 6 C9.35 6 7.7 6 6 6 C6 7.32 6 8.64 6 10 C4.02 10 2.04 10 0 10 C0 6.7 0 3.4 0 0 Z M7 2 C6.67 2.66 6.34 3.32 6 4 C6.66 4 7.32 4 8 4 C7.67 3.34 7.34 2.68 7 2 Z M9 2 C9.33 2.66 9.66 3.32 10 4 C10.66 3.67 11.32 3.34 12 3 C11.01 2.67 10.02 2.34 9 2 Z M15 2 C15.33 2.66 15.66 3.32 16 4 C16.33 3.34 16.66 2.68 17 2 C16.34 2 15.68 2 15 2 Z M18 2 C18 2.66 18 3.32 18 4 C18.66 3.67 19.32 3.34 20 3 C19.34 2.67 18.68 2.34 18 2 Z M23 2 C23 2.99 23 3.98 23 5 C23.66 5 24.32 5 25 5 C25 4.01 25 3.02 25 2 C24.34 2 23.68 2 23 2 Z M19 5 C17.68 5.33 16.36 5.66 15 6 C15 6.66 15 7.32 15 8 C16.65 8 18.3 8 20 8 C19.67 7.01 19.34 6.02 19 5 Z " fill="#FDFDFE" transform="translate(132,50)"/>
<path d="M0 0 C-0.33 1.32 -0.66 2.64 -1 4 C-0.022 3.892 -0.022 3.892 0.977 3.781 C5.674 3.282 10.269 2.875 15 3 C15.33 3.66 15.66 4.32 16 5 C16.66 4.34 17.32 3.68 18 3 C19.32 3 20.64 3 22 3 C22 3.66 22 4.32 22 5 C21.01 5.495 21.01 5.495 20 6 C19.67 6.99 19.34 7.98 19 9 C19.99 9.33 20.98 9.66 22 10 C22 10.66 22 11.32 22 12 C13.09 12 4.18 12 -5 12 C-5 10.68 -5 9.36 -5 8 C-4.01 8 -3.02 8 -2 8 C-3.32 7.34 -4.64 6.68 -6 6 C-6 4.35 -6 2.7 -6 1 C-4 0 -4 0 0 0 Z M5 8 C5.33 8.66 5.66 9.32 6 10 C8.64 10 11.28 10 14 10 C14 9.34 14 8.68 14 8 C11.03 8 8.06 8 5 8 Z " fill="#FEFEFE" transform="translate(138,64)"/>
<path d="M0 0 C1.454 0.031 1.454 0.031 2.938 0.062 C2.607 0.722 2.278 1.382 1.938 2.062 C0.947 2.062 -0.042 2.062 -1.062 2.062 C-1.062 2.722 -1.062 3.382 -1.062 4.062 C0.588 3.733 2.238 3.403 3.938 3.062 C3.938 2.073 3.938 1.082 3.938 0.062 C4.928 0.062 5.917 0.062 6.938 0.062 C6.938 1.382 6.938 2.703 6.938 4.062 C7.597 4.062 8.257 4.062 8.938 4.062 C10.938 6.062 10.938 6.062 10.938 11.062 C5.988 11.062 1.037 11.062 -4.062 11.062 C-4.062 10.073 -4.062 9.082 -4.062 8.062 C-2.412 8.392 -0.762 8.722 0.938 9.062 C0.938 8.403 0.938 7.743 0.938 7.062 C-0.713 6.733 -2.363 6.403 -4.062 6.062 C-4.105 4.396 -4.103 2.729 -4.062 1.062 C-3.062 0.062 -3.062 0.062 0 0 Z " fill="#FEFEFE" transform="translate(136.0625,79.9375)"/>
<path d="M0 0 C4.29 0 8.58 0 13 0 C13 2.31 13 4.62 13 7 C10.69 6.67 8.38 6.34 6 6 C6 7.32 6 8.64 6 10 C4.02 10 2.04 10 0 10 C0 6.7 0 3.4 0 0 Z M7 2 C6.67 2.66 6.34 3.32 6 4 C6.66 4 7.32 4 8 4 C7.67 3.34 7.34 2.68 7 2 Z M9 2 C9.33 2.66 9.66 3.32 10 4 C10.66 3.67 11.32 3.34 12 3 C11.01 2.67 10.02 2.34 9 2 Z " fill="#FBFCFC" transform="translate(132,50)"/>
<path d="M0 0 C11.353 3.756 11.353 3.756 15 8 C14.392 7.867 13.783 7.734 13.156 7.598 C4.795 5.913 -3.502 5.405 -12 5 C-12 3 -12 3 -10.5 1.375 C-6.911 -0.599 -3.939 -0.691 0 0 Z " fill="#FDFDFD" transform="translate(86,35)"/>
<path d="M0 0 C1.32 0.33 2.64 0.66 4 1 C3.67 3.31 3.34 5.62 3 8 C2.01 8 1.02 8 0 8 C-0.66 7.34 -1.32 6.68 -2 6 C-2.206 6.639 -2.412 7.279 -2.625 7.938 C-4 10 -4 10 -7.125 10.75 C-8.548 10.874 -8.548 10.874 -10 11 C-10.33 9.35 -10.66 7.7 -11 6 C-11.66 6.99 -12.32 7.98 -13 9 C-13.043 7.334 -13.041 5.666 -13 4 C-12 3 -12 3 -9.562 2.938 C-8.294 2.968 -8.294 2.968 -7 3 C-6.34 3 -5.68 3 -5 3 C-3.333 3 -1.667 3 0 3 C0 2.01 0 1.02 0 0 Z M-7 6 C-6 8 -6 8 -6 8 Z " fill="#FAFAFB" transform="translate(158,80)"/>
<path d="M0 0 C2.339 0.287 4.674 0.619 7 1 C6.67 2.98 6.34 4.96 6 7 C7.32 7.33 8.64 7.66 10 8 C10 8.99 10 9.98 10 11 C6.37 11 2.74 11 -1 11 C-1.098 3.285 -1.098 3.285 -1 1 C-0.67 0.67 -0.34 0.34 0 0 Z " fill="#FDFDFE" transform="translate(206,80)"/>
<path d="M0 0 C3.63 0 7.26 0 11 0 C11 1.98 11 3.96 11 6 C10.67 4.68 10.34 3.36 10 2 C9.34 2 8.68 2 8 2 C8 3.98 8 5.96 8 8 C7.01 8 6.02 8 5 8 C4.67 6.35 4.34 4.7 4 3 C0.882 3.646 0.882 3.646 0 6 C0 4.02 0 2.04 0 0 Z " fill="#F8F8F9" transform="translate(213,83)"/>
<path d="M0 0 C1.675 0.286 3.344 0.618 5 1 C6.125 5.75 6.125 5.75 5 8 C3.02 8 1.04 8 -1 8 C-0.67 7.34 -0.34 6.68 0 6 C0.99 6 1.98 6 3 6 C1.163 3.033 1.163 3.033 -1 1 C-0.67 0.67 -0.34 0.34 0 0 Z " fill="#FEFEFE" transform="translate(204,36)"/>
<path d="M0 0 C2.31 0.33 4.62 0.66 7 1 C6.67 1.99 6.34 2.98 6 4 C3.438 5.188 3.438 5.188 1 6 C0 3 0 3 0 0 Z " fill="#FEFEFE" transform="translate(274,82)"/>
<path d="M0 0 C1.32 0.66 2.64 1.32 4 2 C4 3.65 4 5.3 4 7 C3.34 7 2.68 7 2 7 C1.67 6.01 1.34 5.02 1 4 C0.34 4 -0.32 4 -1 4 C-1.33 4.66 -1.66 5.32 -2 6 C-1.125 1.125 -1.125 1.125 0 0 Z " fill="#F6F6F7" transform="translate(266,82)"/>
</svg>